<svg width="411" height="321" viewBox="0 0 411 321" fill="none" xmlns="http://www.w3.org/2000/svg">
<rect y="135" width="296" height="177" rx="20" fill="#D9D9D9"/>
<rect y="135" width="296" height="177" rx="20" fill="url(#paint0_linear_375_2754)"/>
<circle cx="326" cy="97" r="85" fill="url(#paint1_linear_375_2754)"/>
<path d="M76.3241 67.718V56.4959L65.1329 55.2504C64.5269 52.9107 63.6056 50.6645 62.3944 48.5736L69.449 39.7333L61.535 31.8174L52.7423 38.8794C50.661 37.6532 48.424 36.7139 46.0917 36.0867L44.8475 24.8389H33.6434L32.3992 36.0161C30.0626 36.6277 27.8191 37.5519 25.7293 38.7638L16.8982 31.7018L8.97771 39.6177L16.0324 48.4259C14.8058 50.5055 13.8693 52.7433 13.249 55.0771L2 56.329V67.5447L13.1913 68.7902C13.7972 71.1278 14.7185 73.3719 15.9298 75.4606L8.87509 84.3073L16.7507 92.236L25.5433 85.174C27.6333 86.398 29.8791 87.3331 32.2196 87.9539L33.4638 99.2017H44.6679L45.9121 88.0052C48.2496 87.3964 50.4935 86.472 52.582 85.2575L61.4131 92.3195L69.34 84.4293L62.2853 75.6275C63.5108 73.5451 64.4472 71.3054 65.0687 68.9699L76.3241 67.718ZM39.1589 75.422C36.5139 75.4233 33.928 74.6393 31.7281 73.1693C29.5283 71.6992 27.8134 69.6091 26.8003 67.1633C25.7873 64.7175 25.5216 62.0259 26.0368 59.4289C26.552 56.8319 27.8251 54.4462 29.6949 52.5735C31.5647 50.7008 33.9473 49.4253 36.5414 48.9083C39.1354 48.3913 41.8244 48.656 44.2681 49.669C46.7119 50.6819 48.8006 52.3976 50.2702 54.599C51.7398 56.8004 52.5242 59.3886 52.5242 62.0363C52.5208 65.5831 51.1114 68.9836 48.6055 71.4909C46.0995 73.9982 42.7019 75.4075 39.1589 75.4092V75.422Z" stroke="#F0F0F0" stroke-miterlimit="10"/>
<path d="M120.339 45.2095L119.101 37.788L111.553 38.2053C110.888 36.7234 110.025 35.3389 108.987 34.09L112.688 27.4518L106.576 23.1118L101.535 28.7486C100.023 28.1555 98.437 27.7711 96.8212 27.6058L94.7497 20.2935L87.3359 21.5389L87.7528 29.0889C86.2724 29.7542 84.8894 30.6182 83.6418 31.6569L77.0361 27.9525L72.6686 34.0772L78.2738 39.1618C77.6946 40.6753 77.3235 42.2606 77.1708 43.8741L69.866 45.9478L71.1101 53.3693L78.6522 52.9584C79.317 54.4383 80.18 55.8206 81.2176 57.0672L77.5235 63.7055L83.6418 68.0775L88.6891 62.4408C90.2016 63.0198 91.7848 63.3933 93.3965 63.5514L95.468 70.8574L102.882 69.6183L102.471 62.062C103.95 61.3965 105.331 60.5326 106.576 59.494L113.207 63.1983L117.575 57.0672L111.931 52.0018C112.509 50.4875 112.882 48.9027 113.041 47.2896L120.339 45.2095ZM96.6096 54.4222C94.8578 54.718 93.0578 54.487 91.4373 53.7584C89.8168 53.0298 88.4486 51.8364 87.5058 50.3291C86.5631 48.8219 86.0882 47.0685 86.1413 45.291C86.1943 43.5135 86.7729 41.7916 87.8039 40.3434C88.8348 38.8952 90.2718 37.7856 91.9328 37.1552C93.5939 36.5247 95.4045 36.4017 97.1355 36.8017C98.8664 37.2017 100.44 38.1067 101.657 39.4022C102.874 40.6977 103.68 42.3255 103.972 44.0796C104.166 45.2443 104.128 46.4359 103.862 47.5861C103.595 48.7364 103.105 49.8228 102.419 50.7833C101.733 51.7437 100.864 52.5595 99.863 53.1839C98.8618 53.8082 97.7476 54.229 96.5839 54.4222H96.6096Z" stroke="#F0F0F0" stroke-miterlimit="10"/>
<path d="M57.7338 51.8414H349.329C351.106 51.8431 352.809 52.5505 354.066 53.8083C355.322 55.066 356.029 56.7715 356.031 58.5503V250.02H50.9934V58.5503C50.9942 57.6662 51.1694 56.7911 51.5089 55.975C51.8485 55.1589 52.3456 54.4179 52.9718 53.7946C53.5981 53.1713 54.3411 52.6779 55.1583 52.3427C55.9755 52.0075 56.8507 51.8372 57.7338 51.8414Z" fill="#407BFF" stroke="#263238" stroke-linecap="round" stroke-linejoin="round"/>
<path d="M309.04 240.48H99.4204V250.816H309.04V240.48Z" fill="#263238" stroke="#263238" stroke-linecap="round" stroke-linejoin="round"/>
<path d="M309.04 245.456H99.4204V250.817H309.04V245.456Z" fill="white" stroke="#263238" stroke-linecap="round" stroke-linejoin="round"/>
<path d="M26.3596 256.948C26.3596 256.948 29.8036 261.159 40.129 264.607H368.325C368.325 264.607 375.976 262.681 379.42 257.326L26.3596 256.948Z" fill="#263238" stroke="#263238" stroke-linecap="round" stroke-linejoin="round"/>
<path d="M378.952 249.404H26.8728C26.2033 249.404 25.6606 249.947 25.6606 250.617V256.241C25.6606 256.911 26.2033 257.455 26.8728 257.455H378.952C379.621 257.455 380.164 256.911 380.164 256.241V250.617C380.164 249.947 379.621 249.404 378.952 249.404Z" fill="#407BFF" stroke="#263238" stroke-linecap="round" stroke-linejoin="round"/>
<path d="M203.464 60.5083C204.941 60.5083 206.138 59.3097 206.138 57.8312C206.138 56.3526 204.941 55.1541 203.464 55.1541C201.987 55.1541 200.79 56.3526 200.79 57.8312C200.79 59.3097 201.987 60.5083 203.464 60.5083Z" fill="#263238"/>
<path d="M343.659 67.3201H63.3967V225.868H343.659V67.3201Z" fill="white" stroke="#263238" stroke-linecap="round" stroke-linejoin="round"/>
<path d="M343.659 67.3201H63.3967V76.918H343.659V67.3201Z" fill="#C9C9C9" stroke="#263238" stroke-linecap="round" stroke-linejoin="round"/>
<path d="M321.219 149.74H205.465V215.211H321.219V149.74Z" stroke="#263238" stroke-linecap="round" stroke-linejoin="round"/>
<path d="M321.219 207.34H205.465V215.211H321.219V207.34Z" stroke="#263238" stroke-linecap="round" stroke-linejoin="round"/>
<path d="M321.219 210.223H205.465V212.329H321.219V210.223Z" stroke="#263238" stroke-linecap="round" stroke-linejoin="round"/>
<path d="M263.961 191.348C270.719 191.348 276.197 185.864 276.197 179.099C276.197 172.334 270.719 166.849 263.961 166.849C257.203 166.849 251.724 172.334 251.724 179.099C251.724 185.864 257.203 191.348 263.961 191.348Z" stroke="#263238" stroke-linecap="round" stroke-linejoin="round"/>
<path d="M273.363 179.15L257.618 170.053V188.254L273.363 179.15Z" stroke="#263238" stroke-linecap="round" stroke-linejoin="round"/>
<path d="M321.117 88.4292H205.657V143.128H321.117V88.4292Z" stroke="#263238" stroke-linecap="round" stroke-linejoin="round"/>
<path d="M205.657 143.128L247.331 110.598L269.887 123.226L296.65 99.4973L321.116 115.188" stroke="#263238" stroke-linecap="round" stroke-linejoin="round"/>
<path d="M220.953 112.125C225.597 112.125 229.361 108.357 229.361 103.709C229.361 99.0605 225.597 95.2922 220.953 95.2922C216.31 95.2922 212.545 99.0605 212.545 103.709C212.545 108.357 216.31 112.125 220.953 112.125Z" stroke="#263238" stroke-linecap="round" stroke-linejoin="round"/>
<path d="M95.1686 152.308H86.7607V213.542H95.1686V152.308Z" stroke="#263238" stroke-linecap="round" stroke-linejoin="round"/>
<path d="M107.405 179.869H98.9973V213.548H107.405V179.869Z" stroke="#263238" stroke-linecap="round" stroke-linejoin="round"/>
<path d="M119.635 189.435H111.228V213.549H119.635V189.435Z" stroke="#263238" stroke-linecap="round" stroke-linejoin="round"/>
<path d="M131.872 170.297H123.464V213.542H131.872V170.297Z" stroke="#263238" stroke-linecap="round" stroke-linejoin="round"/>
<path d="M144.102 174.509H135.695V213.542H144.102V174.509Z" stroke="#263238" stroke-linecap="round" stroke-linejoin="round"/>
<path d="M156.339 205.125H147.931V213.542H156.339V205.125Z" stroke="#263238" stroke-linecap="round" stroke-linejoin="round"/>
<path d="M161.694 156.905H185.783" stroke="#263238" stroke-linecap="round" stroke-linejoin="round"/>
<path d="M161.694 164.943H185.783" stroke="#263238" stroke-linecap="round" stroke-linejoin="round"/>
<path d="M161.694 172.974H185.783" stroke="#263238" stroke-linecap="round" stroke-linejoin="round"/>
<path d="M161.694 181.012H185.783" stroke="#263238" stroke-linecap="round" stroke-linejoin="round"/>
<path d="M161.694 189.05H185.783" stroke="#263238" stroke-linecap="round" stroke-linejoin="round"/>
<path d="M161.694 197.088H185.783" stroke="#263238" stroke-linecap="round" stroke-linejoin="round"/>
<path d="M161.694 205.125H185.783" stroke="#263238" stroke-linecap="round" stroke-linejoin="round"/>
<path d="M161.694 213.163H185.783" stroke="#263238" stroke-linecap="round" stroke-linejoin="round"/>
<path d="M91.083 124.342L85.8369 92.1077H89.5695L93.0327 115.271L97.3617 92.2296H100.568L104.942 115.393L108.322 92.1077H111.978L106.789 124.342H103.531L99.042 100.467L94.5077 124.342H91.083Z" fill="#263238"/>
<path d="M120.783 93.7832H187.482" stroke="#263238" stroke-linecap="round" stroke-linejoin="round"/>
<path d="M120.783 100.865H187.482" stroke="#263238" stroke-linecap="round" stroke-linejoin="round"/>
<path d="M120.783 107.946H187.482" stroke="#263238" stroke-linecap="round" stroke-linejoin="round"/>
<path d="M120.783 115.027H187.482" stroke="#263238" stroke-linecap="round" stroke-linejoin="round"/>
<path d="M120.783 122.108H187.482" stroke="#263238" stroke-linecap="round" stroke-linejoin="round"/>
<path d="M330.179 135.462H291.416C289.249 135.462 287.472 137.645 287.472 140.315V166.214C287.472 168.878 289.249 171.061 291.416 171.061H300.703L294.629 184.459L310.823 171.061H330.179C332.346 171.061 334.116 168.878 334.116 166.214V140.322C334.116 137.651 332.346 135.462 330.179 135.462Z" fill="#263238" stroke="#263238" stroke-linecap="round" stroke-linejoin="round"/>
<path d="M304.076 161.476L295.925 155.698V152.642L304.076 146.819V149.907L298.234 154.157L304.076 158.407V161.476Z" fill="#407BFF"/>
<path d="M306.558 162.503L312.773 139.391H315.422L309.181 162.503H306.558Z" fill="#407BFF"/>
<path d="M317.904 161.476V158.42L323.778 154.144L317.904 149.92V146.832L326.087 152.61V155.666L317.904 161.476Z" fill="#407BFF"/>
<path d="M327.652 48.6958H288.928C286.76 48.6958 284.984 50.8786 284.984 53.5429V79.4348C284.984 82.1055 286.76 84.2883 288.928 84.2883H298.208L292.135 97.6804L308.335 84.2883H327.684C329.852 84.2883 331.628 82.1055 331.628 79.4348V53.5429C331.596 50.8786 329.819 48.6958 327.652 48.6958Z" fill="#263238" stroke="#263238" stroke-linecap="round" stroke-linejoin="round"/>
<path d="M301.556 74.6968L293.398 68.9188V65.8693L301.556 60.0464V63.128L295.713 67.4101L301.556 71.6666V74.6968Z" fill="#407BFF"/>
<path d="M304.038 75.756L310.252 52.644H312.901L306.661 75.756H304.038Z" fill="#407BFF"/>
<path d="M315.383 74.6967V71.6472L321.258 67.365L315.383 63.1407V60.0591L323.566 65.8371V68.893L315.383 74.6967Z" fill="#407BFF"/>
<path d="M175.341 115.56H136.579C134.412 115.56 132.635 117.743 132.635 120.407V146.312C132.635 148.983 134.412 151.165 136.579 151.165H145.866L139.792 164.558L155.986 151.165H175.341C177.509 151.165 179.279 148.983 179.279 146.312V120.42C179.26 117.756 177.509 115.56 175.341 115.56Z" fill="#263238" stroke="#263238" stroke-linecap="round" stroke-linejoin="round"/>
<path d="M149.239 141.574L141.088 135.796V132.746L149.239 126.923V130.005L143.397 134.255L149.239 138.511V141.574Z" fill="#407BFF"/>
<path d="M151.721 142.601L157.936 119.489H160.591L154.344 142.601H151.721Z" fill="#407BFF"/>
<path d="M163.066 141.574V138.524L168.941 134.242L163.066 130.018V126.936L171.25 132.714V135.77L163.066 141.574Z" fill="#407BFF"/>
<defs>
<linearGradient id="paint0_linear_375_2754" x1="345.085" y1="410.133" x2="68.55" y2="316.283" gradientUnits="userSpaceOnUse">
<stop stop-color="#ED893E"/>
<stop offset="1" stop-color="#00ABAD"/>
</linearGradient>
<linearGradient id="paint1_linear_375_2754" x1="368" y1="220" x2="154" y2="-20" gradientUnits="userSpaceOnUse">
<stop stop-color="#00ABAD"/>
<stop offset="1" stop-color="#ED893E"/>
</linearGradient>
</defs>
</svg>
