<svg width="501" height="265" viewBox="0 0 501 265" fill="none" xmlns="http://www.w3.org/2000/svg">
<path d="M160.5 1L207 47.9102C210.7 51.6428 217.2 49.0199 217.2 43.6732V1M240.2 1L261.9 22.7906L296.9 58.0993L335 96.6364C335 96.6364 335 96.6364 335.1 96.6364L394.5 156.56C398.2 160.293 404.7 157.67 404.7 152.323V100.974C404.7 95.6275 411.1 93.0046 414.8 96.7372L449.4 131.542L501 183.597M501 264L414.7 176.939C411 173.206 404.6 175.829 404.6 181.176V232.626C404.6 237.972 398.2 240.595 394.5 236.863L331.6 173.408C331.5 173.307 331.5 173.307 331.4 173.307L227.2 68.1876C223.5 64.4549 217.1 67.0779 217.1 72.4246V123.875C217.1 129.221 210.7 131.844 207 128.112L177.4 98.2505C177.4 98.2505 177.3 98.2505 177.3 98.1496L81 1M63.0999 1V48.8181C63.0999 54.1649 56.6999 56.7878 52.9999 53.0552L1 1M478.021 1L501 24.1821M501 104.585L414.7 17.5237C411 13.7911 404.6 16.414 404.6 21.7608V73.2107C404.6 78.5575 398.2 81.1804 394.5 77.4477L331.6 13.9928L318.5 1.00001" stroke="#F0F0F0" stroke-width="2"/>
</svg>
