<svg width="163" height="43" viewBox="0 0 163 43" fill="none" xmlns="http://www.w3.org/2000/svg">
<g clip-path="url(#clip0_352_1727)">
<path d="M34.0187 15.0077V30.0543C34.0187 36.5753 28.5633 42.0577 21.9229 42.0094C18.6398 41.9853 15.6776 40.6811 13.5053 38.5799C12.6166 37.7104 11.8761 36.696 11.2836 35.585C10.469 33.991 10 32.1796 10 30.2716V27.9772C10 27.784 10.0741 27.6149 10.1975 27.4942L18.1708 19.6931C18.6151 19.2584 19.3557 19.5724 19.3557 20.1762V30.2716C19.3557 31.6966 20.5406 32.8559 21.997 32.8559C23.4534 32.8559 24.6136 31.6966 24.6136 30.2958V22.8329C24.6136 22.6397 24.6877 22.4706 24.8111 22.3498L28.7607 18.5097L32.8338 14.5247C33.2781 14.0899 34.0187 14.4039 34.0187 15.0077Z" fill="white"/>
<path d="M34.0187 0.685422V7.93096C34.0187 8.12418 33.9446 8.29324 33.8212 8.414L25.8479 16.2392C25.4036 16.6739 24.663 16.3599 24.663 15.7562V9.86311C24.663 9.25931 23.9224 8.94534 23.4781 9.38007L15.2579 17.3985L11.1849 21.3835C10.7652 21.8183 10 21.5043 10 20.9005V13.6549C10 13.4617 10.0741 13.2927 10.1975 13.1719L15.2579 8.22079L19.3804 4.18743L23.4534 0.202386C23.8978 -0.232347 24.6383 0.0816265 24.6383 0.685422V6.55431C24.6383 7.15811 25.4036 7.47208 25.8232 7.03735L32.8338 0.202386C33.2781 -0.208195 34.0187 0.0816265 34.0187 0.685422Z" fill="white"/>
<path d="M60.4219 24.0164C59.6566 23.5334 58.7926 23.1469 57.8546 22.8571C56.9166 22.5673 55.9785 22.3258 55.0405 22.1325C54.1025 21.9393 53.2385 21.7461 52.4732 21.5771C51.6833 21.3838 51.0662 21.1665 50.5972 20.8767C50.1281 20.5868 49.8813 20.2004 49.8813 19.6932C49.8813 19.3068 50.0047 18.9687 50.2516 18.6547C50.4984 18.3649 50.8934 18.0992 51.4365 17.9301C51.9795 17.7369 52.7201 17.6645 53.6087 17.6645C54.6208 17.6645 55.6576 17.8094 56.7438 18.0992C57.8299 18.389 58.9161 18.8238 60.0269 19.4034L62.0511 14.6455C60.9156 13.9934 59.6073 13.5104 58.1261 13.1722C56.6697 12.8341 55.1639 12.665 53.6581 12.665C51.3871 12.665 49.4863 13.0032 47.9805 13.6794C46.45 14.3557 45.3145 15.2251 44.5493 16.3361C43.784 17.4471 43.4138 18.6547 43.4138 20.0313C43.4138 21.2389 43.6606 22.2292 44.1296 23.0262C44.6233 23.8232 45.2405 24.4511 46.0057 24.9342C46.7709 25.4172 47.6349 25.8036 48.573 26.1176C49.511 26.4316 50.449 26.6731 51.3871 26.8663C52.3251 27.0595 53.1891 27.2527 53.9543 27.4459C54.7196 27.6392 55.3614 27.8807 55.8304 28.1947C56.3241 28.5086 56.5463 28.8951 56.5463 29.4264C56.5463 29.7887 56.4229 30.1026 56.176 30.3683C55.9292 30.634 55.5095 30.8514 54.9664 31.0204C54.4234 31.1895 53.6828 31.2619 52.7941 31.2619C51.4611 31.2619 50.1035 31.0446 48.7458 30.634C47.3881 30.2234 46.2032 29.6921 45.1664 29.04L43.0188 33.7496C44.1296 34.4741 45.5367 35.0779 47.2893 35.5368C49.042 35.9957 50.8687 36.2372 52.7694 36.2372C55.0652 36.2372 56.9659 35.8991 58.4717 35.247C59.9775 34.5707 61.113 33.7013 61.8783 32.5903C62.6435 31.4793 63.0138 30.2717 63.0138 28.9434C63.0138 27.7599 62.767 26.7697 62.2979 25.9968C61.8042 25.1515 61.1871 24.5236 60.4219 24.0164Z" fill="white"/>
<path d="M85.823 18.2198H78.3928L71.9746 24.3302V11.7471H65.7046V35.754H71.9746V31.4549L73.8507 29.5953L78.8618 35.754H86.4648L78.4175 25.731L85.823 18.2198Z" fill="white"/>
<path d="M94.2899 10.6363C93.5741 10.0325 92.6607 9.74268 91.5252 9.74268C90.3897 9.74268 89.4516 10.0566 88.7604 10.6846C88.0446 11.3125 87.699 12.0854 87.699 13.0032C87.699 13.9209 88.0446 14.7179 88.7604 15.3217C89.4763 15.9497 90.3897 16.2637 91.5252 16.2637C92.6854 16.2637 93.6234 15.9497 94.3146 15.3217C95.0058 14.6938 95.3514 13.8726 95.3514 12.9066C95.3514 11.9888 94.9811 11.2401 94.2899 10.6363Z" fill="white"/>
<path d="M94.6355 18.2197H88.3655V35.7539H94.6355V18.2197Z" fill="white"/>
<path d="M104.979 11.7471H98.7085V35.7298H104.979V11.7471Z" fill="white"/>
<path d="M115.322 11.7471H109.052V35.7298H115.322V11.7471Z" fill="white"/>
<path d="M131.96 26.6729C131.96 27.6389 131.811 28.4359 131.491 29.0397C131.17 29.6435 130.775 30.1024 130.256 30.3922C129.738 30.6821 129.195 30.8028 128.578 30.8028C127.64 30.8028 126.899 30.513 126.381 29.9334C125.862 29.3537 125.615 28.3876 125.615 27.0351V18.2197H119.345V28.0254C119.345 29.8609 119.666 31.3825 120.308 32.5659C120.95 33.7735 121.863 34.643 123.024 35.1984C124.184 35.7539 125.492 36.0438 126.948 36.0438C128.306 36.0438 129.59 35.7298 130.75 35.1018C131.318 34.7879 131.836 34.4014 132.28 33.9184V35.7539H138.254V18.2197H131.984V26.6729H131.96Z" fill="white"/>
<path d="M161.162 22.1809C160.372 20.8284 159.311 19.7899 157.978 19.0412C156.645 18.2925 155.164 17.9302 153.534 17.9302C151.93 17.9302 150.597 18.2441 149.511 18.8962C149.042 19.1861 148.597 19.5483 148.227 19.9831V18.22H142.253V42.0095H148.523V34.1843C148.844 34.5225 149.214 34.8123 149.609 35.0538C150.696 35.7059 151.979 36.044 153.51 36.044C155.139 36.044 156.62 35.6818 157.953 34.9331C159.286 34.2085 160.347 33.1458 161.137 31.7933C161.927 30.4408 162.322 28.8226 162.322 26.9871C162.322 25.1274 161.927 23.5334 161.162 22.1809ZM155.46 29.2574C155.114 29.8853 154.67 30.3684 154.102 30.6823C153.534 30.9963 152.917 31.1654 152.201 31.1654C151.485 31.1654 150.868 30.9963 150.301 30.6823C149.733 30.3684 149.288 29.8853 148.943 29.2574C148.597 28.6294 148.424 27.8807 148.424 26.9871C148.424 26.0935 148.597 25.3448 148.943 24.7168C149.288 24.0889 149.733 23.6059 150.301 23.2919C150.868 22.9779 151.485 22.8088 152.201 22.8088C152.917 22.8088 153.534 22.9779 154.102 23.2919C154.67 23.6059 155.114 24.0889 155.46 24.7168C155.805 25.3448 155.978 26.0935 155.978 26.9871C155.978 27.8807 155.805 28.6294 155.46 29.2574Z" fill="white"/>
</g>
<defs>
<clipPath id="clip0_352_1727">
<rect width="162.322" height="42.0095" fill="white"/>
</clipPath>
</defs>
</svg>
