<svg width="154" height="42" viewBox="0 0 154 42" fill="none" xmlns="http://www.w3.org/2000/svg">
<g clip-path="url(#clip0_325_2528)">
<path d="M24.6549 14.9983V30.0449C24.6549 36.5659 19.1995 42.0483 12.5592 42C9.27605 41.9759 6.31383 40.6717 4.14153 38.5705C3.25286 37.701 2.51231 36.6866 1.91986 35.5756C1.10525 33.9816 0.63623 32.1702 0.63623 30.2622V27.9678C0.63623 27.7746 0.710286 27.6055 0.833712 27.4848L8.80703 19.6837C9.25136 19.249 9.99192 19.563 9.99192 20.1668V30.2622C9.99192 31.6872 11.1768 32.8465 12.6332 32.8465C14.0897 32.8465 15.2499 31.6872 15.2499 30.2864V22.8235C15.2499 22.6303 15.3239 22.4612 15.4473 22.3404L19.397 18.5003L23.47 14.5153C23.9144 14.0805 24.6549 14.3945 24.6549 14.9983Z" fill="#00ABAD"/>
<path d="M24.6549 0.676267V7.92181C24.6549 8.11502 24.5809 8.28409 24.4574 8.40485L16.4841 16.23C16.0398 16.6648 15.2992 16.3508 15.2992 15.747V9.85396C15.2992 9.25016 14.5587 8.93619 14.1143 9.37092L5.89418 17.3893L1.82112 21.3744C1.40147 21.8091 0.63623 21.4951 0.63623 20.8913V13.6458C0.63623 13.4526 0.710286 13.2835 0.833712 13.1628L5.89418 8.21163L10.0166 4.17828L14.0897 0.19323C14.534 -0.241502 15.2746 0.0724712 15.2746 0.676267V6.54516C15.2746 7.14895 16.0398 7.46293 16.4594 7.02819L23.47 0.19323C23.9144 -0.21735 24.6549 0.0724712 24.6549 0.676267Z" fill="#0059A9"/>
<path d="M51.4631 24.0069C50.6979 23.5238 49.8339 23.1374 48.8959 22.8476C47.9578 22.5578 47.0198 22.3162 46.0817 22.123C45.1437 21.9298 44.2797 21.7366 43.5145 21.5675C42.7246 21.3743 42.1074 21.157 41.6384 20.8671C41.1694 20.5773 40.9225 20.1909 40.9225 19.6837C40.9225 19.2973 41.046 18.9591 41.2928 18.6452C41.5397 18.3553 41.9346 18.0897 42.4777 17.9206C43.0208 17.7274 43.7613 17.6549 44.65 17.6549C45.6621 17.6549 46.6989 17.7999 47.785 18.0897C48.8712 18.3795 49.9573 18.8142 51.0682 19.3939L53.0923 14.636C51.9568 13.9839 50.6485 13.5008 49.1674 13.1627C47.711 12.8246 46.2052 12.6555 44.6994 12.6555C42.4283 12.6555 40.5276 12.9936 39.0218 13.6699C37.4913 14.3461 36.3558 15.2156 35.5905 16.3266C34.8253 17.4376 34.455 18.6452 34.455 20.0218C34.455 21.2294 34.7019 22.2196 35.1709 23.0166C35.6646 23.8137 36.2817 24.4416 37.047 24.9246C37.8122 25.4077 38.6762 25.7941 39.6142 26.1081C40.5523 26.422 41.4903 26.6636 42.4283 26.8568C43.3664 27.05 44.2304 27.2432 44.9956 27.4364C45.7608 27.6296 46.4027 27.8712 46.8717 28.1851C47.3654 28.4991 47.5875 28.8855 47.5875 29.4169C47.5875 29.7792 47.4641 30.0931 47.2173 30.3588C46.9704 30.6245 46.5508 30.8418 46.0077 31.0109C45.4646 31.18 44.7241 31.2524 43.8354 31.2524C42.5024 31.2524 41.1447 31.035 39.787 30.6245C38.4293 30.2139 37.2445 29.6825 36.2077 29.0304L34.0601 33.74C35.1709 34.4646 36.5779 35.0684 38.3306 35.5273C40.0832 35.9862 41.9099 36.2277 43.8107 36.2277C46.1064 36.2277 48.0072 35.8896 49.513 35.2375C51.0188 34.5612 52.1543 33.6917 52.9195 32.5808C53.6848 31.4698 54.0551 30.2622 54.0551 28.9338C54.0551 27.7504 53.8082 26.7602 53.3392 25.9873C52.8455 25.142 52.2284 24.5141 51.4631 24.0069Z" fill="#0059A9"/>
<path d="M76.8643 18.2104H69.434L63.0159 24.3208V11.7377H56.7458V35.7446H63.0159V31.4456L64.892 29.5859L69.9031 35.7446H77.5061L69.4587 25.7216L76.8643 18.2104Z" fill="#0059A9"/>
<path d="M85.3312 10.6268C84.6153 10.023 83.702 9.73315 82.5664 9.73315C81.4309 9.73315 80.4929 10.0471 79.8017 10.6751C79.0858 11.303 78.7402 12.0759 78.7402 12.9936C78.7402 13.9114 79.0858 14.7084 79.8017 15.3122C80.5176 15.9402 81.4309 16.2541 82.5664 16.2541C83.7266 16.2541 84.6647 15.9402 85.3559 15.3122C86.0471 14.6843 86.3926 13.8631 86.3926 12.897C86.3926 11.9793 86.0224 11.2306 85.3312 10.6268Z" fill="#0059A9"/>
<path d="M85.6768 18.2104H79.4067V35.7447H85.6768V18.2104Z" fill="#0059A9"/>
<path d="M96.0198 11.7377H89.7498V35.7205H96.0198V11.7377Z" fill="#0059A9"/>
<path d="M106.363 11.7377H100.093V35.7205H106.363V11.7377Z" fill="#0059A9"/>
<path d="M123.001 26.6636C123.001 27.6297 122.853 28.4267 122.532 29.0305C122.211 29.6343 121.816 30.0931 121.298 30.383C120.779 30.6728 120.236 30.7935 119.619 30.7935C118.681 30.7935 117.94 30.5037 117.422 29.9241C116.904 29.3444 116.657 28.3784 116.657 27.0259V18.2104H110.387V28.0161C110.387 29.8516 110.708 31.3732 111.349 32.5566C111.991 33.7642 112.905 34.6337 114.065 35.1892C115.225 35.7447 116.533 36.0345 117.99 36.0345C119.347 36.0345 120.631 35.7205 121.791 35.0926C122.359 34.7786 122.877 34.3922 123.322 33.9091V35.7447H129.296V18.2104H123.026V26.6636H123.001Z" fill="#0059A9"/>
<path d="M152.203 22.1713C151.413 20.8188 150.352 19.7803 149.019 19.0316C147.686 18.2829 146.205 17.9206 144.576 17.9206C142.971 17.9206 141.638 18.2346 140.552 18.8867C140.083 19.1765 139.639 19.5388 139.268 19.9735V18.2104H133.294V42H139.564V34.1748C139.885 34.5129 140.256 34.8027 140.651 35.0442C141.737 35.6963 143.02 36.0345 144.551 36.0345C146.18 36.0345 147.661 35.6722 148.994 34.9235C150.327 34.1989 151.389 33.1362 152.179 31.7837C152.969 30.4312 153.363 28.8131 153.363 26.9775C153.363 25.1178 152.969 23.5238 152.203 22.1713ZM146.501 29.2478C146.155 29.8757 145.711 30.3588 145.143 30.6728C144.576 30.9867 143.958 31.1558 143.243 31.1558C142.527 31.1558 141.91 30.9867 141.342 30.6728C140.774 30.3588 140.33 29.8757 139.984 29.2478C139.639 28.6198 139.466 27.8711 139.466 26.9775C139.466 26.0839 139.639 25.3352 139.984 24.7073C140.33 24.0793 140.774 23.5963 141.342 23.2823C141.91 22.9683 142.527 22.7993 143.243 22.7993C143.958 22.7993 144.576 22.9683 145.143 23.2823C145.711 23.5963 146.155 24.0793 146.501 24.7073C146.847 25.3352 147.019 26.0839 147.019 26.9775C147.019 27.8711 146.847 28.6198 146.501 29.2478Z" fill="#0059A9"/>
</g>
<defs>
<clipPath id="clip0_325_2528">
<rect width="152.727" height="42" fill="white" transform="translate(0.63623)"/>
</clipPath>
</defs>
</svg>
