<svg width="441" height="384" viewBox="0 0 441 384" fill="none" xmlns="http://www.w3.org/2000/svg">
<g clip-path="url(#clip0_370_2004)">
<rect width="336" height="123" rx="20" transform="matrix(-1 0 0 1 440 261)" fill="#D9D9D9"/>
<rect width="336" height="123" rx="20" transform="matrix(-1 0 0 1 440 261)" fill="url(#paint0_linear_370_2004)"/>
<circle cx="105" cy="105" r="105" fill="url(#paint1_linear_370_2004)"/>
<path d="M321.792 46.8291H160.522V345.585H321.792V46.8291Z" fill="white"/>
<path d="M321.792 346.029H160.523C160.405 346.029 160.292 345.982 160.209 345.899C160.126 345.816 160.079 345.703 160.079 345.585V46.8297C160.079 46.712 160.126 46.5992 160.209 46.5159C160.292 46.4327 160.405 46.386 160.523 46.386H321.792C321.909 46.386 322.022 46.4327 322.105 46.5159C322.189 46.5992 322.235 46.712 322.235 46.8297V345.585C322.235 345.703 322.189 345.816 322.105 345.899C322.022 345.982 321.909 346.029 321.792 346.029ZM160.966 345.141H321.348V47.2734H160.966V345.141Z" fill="#263238"/>
<path d="M222.1 72.396H198.024C196.388 72.396 195.061 73.723 195.061 75.3599V80.2141C195.061 81.851 196.388 83.178 198.024 83.178H222.1C223.737 83.178 225.064 81.851 225.064 80.2141V75.3599C225.064 73.723 223.737 72.396 222.1 72.396Z" fill="#407BFF"/>
<path d="M222.1 83.6305H198.033C197.128 83.6281 196.26 83.2674 195.62 82.6272C194.98 81.987 194.619 81.1193 194.617 80.2139V75.3687C194.619 74.4633 194.98 73.5956 195.62 72.9554C196.26 72.3152 197.128 71.9545 198.033 71.9521H222.1C223.005 71.9545 223.873 72.3152 224.513 72.9554C225.153 73.5956 225.514 74.4633 225.516 75.3687V80.2139C225.514 81.1193 225.153 81.987 224.513 82.6272C223.873 83.2674 223.005 83.6281 222.1 83.6305ZM198.033 72.8396C197.363 72.8419 196.721 73.1091 196.247 73.5829C195.774 74.0567 195.506 74.6986 195.504 75.3687V80.2139C195.506 80.884 195.774 81.5259 196.247 81.9997C196.721 82.4735 197.363 82.7407 198.033 82.7431H222.1C222.77 82.7407 223.412 82.4735 223.886 81.9997C224.359 81.5259 224.627 80.884 224.629 80.2139V75.3687C224.627 74.6986 224.359 74.0567 223.886 73.5829C223.412 73.1091 222.77 72.8419 222.1 72.8396H198.033Z" fill="#263238"/>
<path d="M312.607 247.943H170.621C170.504 247.943 170.391 247.897 170.308 247.813C170.224 247.73 170.178 247.617 170.178 247.5C170.178 247.382 170.224 247.269 170.308 247.186C170.391 247.103 170.504 247.056 170.621 247.056H312.607C312.725 247.056 312.838 247.103 312.921 247.186C313.004 247.269 313.051 247.382 313.051 247.5C313.051 247.617 313.004 247.73 312.921 247.813C312.838 247.897 312.725 247.943 312.607 247.943Z" fill="#263238"/>
<path d="M255.857 72.396H231.782C230.145 72.396 228.818 73.723 228.818 75.3599V80.2141C228.818 81.851 230.145 83.178 231.782 83.178H255.857C257.494 83.178 258.821 81.851 258.821 80.2141V75.3599C258.821 73.723 257.494 72.396 255.857 72.396Z" fill="#407BFF"/>
<path d="M255.857 83.6305H231.79C230.885 83.6281 230.017 83.2674 229.377 82.6272C228.737 81.987 228.376 81.1193 228.374 80.2139V75.3687C228.376 74.4633 228.737 73.5956 229.377 72.9554C230.017 72.3152 230.885 71.9545 231.79 71.9521H255.857C256.761 71.9545 257.628 72.3155 258.267 72.956C258.906 73.5964 259.264 74.4641 259.264 75.3687V80.2139C259.264 81.1185 258.906 81.9862 258.267 82.6267C257.628 83.2671 256.761 83.6281 255.857 83.6305ZM231.79 72.8396C231.12 72.8419 230.478 73.1091 230.004 73.5829C229.53 74.0567 229.263 74.6986 229.261 75.3687V80.2139C229.263 80.884 229.53 81.5259 230.004 81.9997C230.478 82.4735 231.12 82.7407 231.79 82.7431H255.857C256.526 82.7407 257.167 82.4732 257.639 81.9992C258.112 81.5251 258.377 80.8832 258.377 80.2139V75.3687C258.377 74.6994 258.112 74.0575 257.639 73.5834C257.167 73.1094 256.526 72.8419 255.857 72.8396H231.79Z" fill="#263238"/>
<path d="M289.614 72.396H265.539C263.902 72.396 262.575 73.723 262.575 75.3599V80.2141C262.575 81.851 263.902 83.178 265.539 83.178H289.614C291.251 83.178 292.578 81.851 292.578 80.2141V75.3599C292.578 73.723 291.251 72.396 289.614 72.396Z" fill="#407BFF"/>
<path d="M289.613 83.6305H265.547C264.642 83.6281 263.774 83.2674 263.134 82.6272C262.493 81.987 262.133 81.1193 262.13 80.2139V75.3687C262.133 74.4633 262.493 73.5956 263.134 72.9554C263.774 72.3152 264.642 71.9545 265.547 71.9521H289.613C290.518 71.9545 291.385 72.3155 292.024 72.956C292.662 73.5964 293.021 74.4641 293.021 75.3687V80.2139C293.021 81.1185 292.662 81.9862 292.024 82.6267C291.385 83.2671 290.518 83.6281 289.613 83.6305ZM265.547 72.8396C264.877 72.8419 264.235 73.1091 263.761 73.5829C263.287 74.0567 263.02 74.6986 263.018 75.3687V80.2139C263.02 80.884 263.287 81.5259 263.761 81.9997C264.235 82.4735 264.877 82.7407 265.547 82.7431H289.613C290.283 82.7407 290.924 82.4732 291.396 81.9992C291.868 81.5251 292.134 80.8832 292.134 80.2139V75.3687C292.134 74.6994 291.868 74.0575 291.396 73.5834C290.924 73.1094 290.283 72.8419 289.613 72.8396H265.547Z" fill="#263238"/>
<path d="M321.792 46.8291H160.522V68.7836H321.792V46.8291Z" fill="#407BFF"/>
<path d="M321.792 69.2279H160.523C160.405 69.2279 160.292 69.1812 160.209 69.098C160.126 69.0148 160.079 68.9019 160.079 68.7842V46.8297C160.079 46.712 160.126 46.5992 160.209 46.5159C160.292 46.4327 160.405 46.386 160.523 46.386H321.792C321.909 46.386 322.022 46.4327 322.105 46.5159C322.189 46.5992 322.235 46.712 322.235 46.8297V68.7842C322.235 68.9019 322.189 69.0148 322.105 69.098C322.022 69.1812 321.909 69.2279 321.792 69.2279ZM160.966 68.3405H321.348V47.2734H160.966V68.3405Z" fill="#263238"/>
<path d="M301.559 61.6493C301.56 61.1002 301.399 60.563 301.094 60.1059C300.79 59.6489 300.357 59.2927 299.849 59.0825C299.342 58.8724 298.784 58.8179 298.245 58.9259C297.707 59.0339 297.213 59.2996 296.826 59.6891C296.439 60.0786 296.176 60.5744 296.072 61.1135C295.967 61.6526 296.025 62.2105 296.239 62.7165C296.452 63.2224 296.811 63.6535 297.27 63.9549C297.729 64.2563 298.267 64.4144 298.817 64.4091C299.545 64.4021 300.241 64.1086 300.754 63.592C301.267 63.0754 301.556 62.3775 301.559 61.6493Z" fill="white"/>
<path d="M298.816 64.8531C298.181 64.8531 297.559 64.6644 297.031 64.3111C296.502 63.9577 296.091 63.4554 295.848 62.8679C295.605 62.2804 295.542 61.6341 295.666 61.0107C295.791 60.3873 296.098 59.8149 296.548 59.366C296.998 58.9171 297.571 58.6118 298.195 58.4889C298.819 58.3659 299.465 58.4308 300.052 58.6753C300.639 58.9198 301.14 59.3329 301.492 59.8624C301.844 60.3918 302.031 61.0138 302.029 61.6495C302.026 62.5 301.687 63.3148 301.085 63.9153C300.483 64.5158 299.667 64.8531 298.816 64.8531ZM298.816 59.3245C298.357 59.3245 297.907 59.4609 297.525 59.7163C297.142 59.9718 296.844 60.3349 296.668 60.7598C296.492 61.1846 296.446 61.6521 296.536 62.1031C296.626 62.5541 296.847 62.9684 297.172 63.2936C297.498 63.6187 297.912 63.8402 298.363 63.9299C298.814 64.0196 299.281 63.9735 299.706 63.7976C300.131 63.6216 300.494 63.3236 300.75 62.9412C301.005 62.5589 301.141 62.1094 301.141 61.6495C301.139 61.0336 300.893 60.4436 300.458 60.0081C300.022 59.5726 299.432 59.3268 298.816 59.3245Z" fill="#263238"/>
<path d="M309.057 61.6492C309.059 61.1008 308.898 60.5643 308.594 60.1076C308.291 59.6509 307.858 59.2947 307.352 59.084C306.846 58.8734 306.288 58.8178 305.751 58.9244C305.213 59.0309 304.718 59.2948 304.331 59.6825C303.943 60.0703 303.679 60.5644 303.573 61.1023C303.466 61.6402 303.522 62.1977 303.732 62.7039C303.943 63.2102 304.299 63.6425 304.756 63.9461C305.212 64.2496 305.749 64.4108 306.297 64.409C307.029 64.4067 307.729 64.1151 308.246 63.5981C308.763 63.081 309.055 62.3804 309.057 61.6492Z" fill="white"/>
<path d="M306.297 64.853C305.66 64.8618 305.034 64.6807 304.499 64.3327C303.965 63.9847 303.547 63.4856 303.297 62.8989C303.047 62.3122 302.978 61.6645 303.097 61.0382C303.217 60.4119 303.52 59.8354 303.969 59.3821C304.417 58.9287 304.99 58.619 305.615 58.4924C306.24 58.3658 306.888 58.4281 307.478 58.6712C308.067 58.9144 308.571 59.3274 308.925 59.8578C309.279 60.3882 309.467 61.0119 309.465 61.6495C309.463 62.4923 309.129 63.3004 308.537 63.8997C307.944 64.499 307.14 64.8414 306.297 64.853ZM306.297 59.3244C305.835 59.3156 305.382 59.4445 304.993 59.6945C304.605 59.9446 304.3 60.3045 304.118 60.7285C303.935 61.1525 303.882 61.6213 303.967 62.0752C304.052 62.5291 304.27 62.9475 304.593 63.2772C304.916 63.6068 305.33 63.8326 305.783 63.926C306.235 64.0194 306.704 63.976 307.132 63.8014C307.559 63.6268 307.925 63.3289 308.183 62.9457C308.44 62.5624 308.578 62.1112 308.578 61.6495C308.578 61.0404 308.339 60.4557 307.912 60.0209C307.486 59.5861 306.906 59.3361 306.297 59.3244Z" fill="#263238"/>
<path d="M316.565 61.6492C316.567 61.1012 316.406 60.565 316.102 60.1085C315.799 59.6521 315.368 59.2958 314.862 59.0849C314.356 58.874 313.799 58.8179 313.261 58.9237C312.724 59.0295 312.23 59.2925 311.841 59.6794C311.453 60.0662 311.189 60.5596 311.081 61.0969C310.974 61.6342 311.028 62.1914 311.237 62.6978C311.447 63.2042 311.801 63.6372 312.257 63.9418C312.712 64.2464 313.248 64.409 313.796 64.409C314.529 64.409 315.232 64.1185 315.751 63.6012C316.27 63.0839 316.562 62.3819 316.565 61.6492Z" fill="white"/>
<path d="M313.796 64.8531C313.16 64.8531 312.539 64.6644 312.01 64.3111C311.482 63.9577 311.07 63.4554 310.827 62.8679C310.584 62.2804 310.521 61.6341 310.646 61.0107C310.771 60.3873 311.077 59.8149 311.528 59.366C311.978 58.9171 312.551 58.6118 313.175 58.4889C313.798 58.3659 314.445 58.4308 315.031 58.6753C315.618 58.9198 316.119 59.3329 316.471 59.8624C316.823 60.3918 317.01 61.0138 317.008 61.6495C317.008 62.071 316.925 62.4883 316.764 62.8775C316.602 63.2668 316.365 63.6203 316.067 63.9179C315.768 64.2155 315.414 64.4513 315.025 64.6118C314.635 64.7722 314.217 64.8542 313.796 64.8531ZM313.796 59.3245C313.336 59.3245 312.887 59.4609 312.504 59.7163C312.122 59.9718 311.824 60.3349 311.648 60.7598C311.472 61.1846 311.426 61.6521 311.516 62.1031C311.605 62.5541 311.827 62.9684 312.152 63.2936C312.477 63.6187 312.891 63.8402 313.342 63.9299C313.793 64.0196 314.261 63.9735 314.686 63.7976C315.111 63.6216 315.474 63.3236 315.729 62.9412C315.985 62.5589 316.121 62.1094 316.121 61.6495C316.121 61.3442 316.061 61.0419 315.944 60.7598C315.827 60.4777 315.656 60.2214 315.44 60.0055C315.224 59.7896 314.968 59.6183 314.686 59.5015C314.404 59.3847 314.101 59.3245 313.796 59.3245Z" fill="#263238"/>
<path d="M321.792 322.069H160.522V345.576H321.792V322.069Z" fill="#407BFF"/>
<path d="M321.792 346.029H160.523C160.405 346.029 160.292 345.982 160.209 345.899C160.126 345.816 160.079 345.703 160.079 345.585V322.069C160.079 321.951 160.126 321.838 160.209 321.755C160.292 321.672 160.405 321.625 160.523 321.625H321.792C321.909 321.625 322.022 321.672 322.105 321.755C322.189 321.838 322.235 321.951 322.235 322.069V345.585C322.235 345.703 322.189 345.816 322.105 345.899C322.022 345.982 321.909 346.029 321.792 346.029ZM160.966 345.142H321.348V322.513H160.966V345.142Z" fill="#263238"/>
<path opacity="0.04" d="M272.753 46.8291L160.522 242.618V312.671L312.909 46.8291H272.753Z" fill="black"/>
<path opacity="0.04" d="M321.791 169.194L319.12 167.269L222.117 338.628L224.762 345.585H321.791V169.194Z" fill="black"/>
<path d="M326.628 105.612C327.157 105.612 327.665 105.401 328.04 105.027C328.414 104.652 328.625 104.144 328.625 103.615V83.6925C328.625 83.4307 328.573 83.1715 328.472 82.9298C328.372 82.688 328.225 82.4685 328.039 82.2838C327.854 82.0991 327.633 81.9529 327.391 81.8535C327.149 81.7541 326.89 81.7036 326.628 81.7047C326.504 81.696 326.379 81.696 326.255 81.7047V44.4335C326.246 41.0341 324.889 37.7771 322.482 35.3766C320.075 32.9762 316.814 31.6282 313.414 31.6282H171.864C168.458 31.6282 165.192 32.981 162.784 35.3892C160.376 37.7973 159.023 41.0634 159.023 44.469V345.15C159.022 346.837 159.353 348.508 159.998 350.067C160.642 351.626 161.588 353.042 162.781 354.236C163.973 355.429 165.389 356.376 166.948 357.022C168.506 357.667 170.177 358 171.864 358H313.414C315.101 358 316.772 357.667 318.33 357.022C319.889 356.376 321.305 355.429 322.497 354.236C323.69 353.042 324.635 351.626 325.28 350.067C325.925 348.508 326.256 346.837 326.255 345.15V162.237C326.379 162.246 326.504 162.246 326.628 162.237C327.157 162.237 327.665 162.027 328.04 161.652C328.414 161.278 328.625 160.77 328.625 160.24V140.363C328.625 139.833 328.414 139.325 328.04 138.951C327.665 138.576 327.157 138.366 326.628 138.366C326.504 138.357 326.379 138.357 326.255 138.366V133.867C326.379 133.88 326.504 133.88 326.628 133.867C326.89 133.868 327.149 133.817 327.391 133.718C327.633 133.619 327.854 133.472 328.039 133.288C328.225 133.103 328.372 132.883 328.472 132.642C328.573 132.4 328.625 132.141 328.625 131.879V112.028C328.625 111.498 328.414 110.99 328.04 110.616C327.665 110.241 327.157 110.031 326.628 110.031C326.502 110.032 326.377 110.047 326.255 110.075V105.567C326.377 105.595 326.502 105.61 326.628 105.612ZM318.819 338.672H166.459V53.8134H318.819V338.672Z" fill="#263238"/>
<path d="M264.988 254.075H221.283V315.466H264.988V254.075Z" fill="white"/>
<path d="M264.988 315.91H221.284C221.166 315.91 221.053 315.864 220.97 315.78C220.887 315.697 220.84 315.584 220.84 315.467V254.076C220.842 253.959 220.89 253.847 220.972 253.764C221.055 253.682 221.167 253.634 221.284 253.632H264.988C265.106 253.632 265.219 253.679 265.302 253.762C265.385 253.845 265.432 253.958 265.432 254.076V315.467C265.432 315.584 265.385 315.697 265.302 315.78C265.219 315.864 265.106 315.91 264.988 315.91ZM221.727 315.023H264.545V254.519H221.727V315.023Z" fill="#263238"/>
<path d="M264.988 271.602L258.697 264.219L245.164 287.761L236.236 282.082L221.283 315.466H264.988V271.602Z" fill="#407BFF"/>
<path d="M264.989 315.91H221.284C221.21 315.911 221.137 315.893 221.072 315.858C221.006 315.823 220.951 315.772 220.911 315.71C220.871 315.648 220.848 315.577 220.843 315.503C220.838 315.429 220.853 315.355 220.884 315.289L235.811 281.878C235.838 281.821 235.876 281.771 235.923 281.729C235.971 281.688 236.026 281.657 236.086 281.638C236.147 281.616 236.213 281.609 236.277 281.617C236.342 281.625 236.404 281.647 236.458 281.682L244.995 287.122L258.306 263.979C258.341 263.915 258.39 263.862 258.451 263.823C258.511 263.784 258.581 263.761 258.652 263.757C258.722 263.751 258.792 263.762 258.856 263.788C258.921 263.815 258.979 263.855 259.025 263.908L265.317 271.3C265.387 271.378 265.425 271.479 265.423 271.584V315.448C265.426 315.507 265.416 315.566 265.396 315.622C265.375 315.677 265.343 315.727 265.303 315.77C265.262 315.813 265.214 315.848 265.16 315.872C265.106 315.896 265.048 315.909 264.989 315.91ZM221.976 315.022H264.571V271.77L258.768 265.017L245.572 287.983C245.507 288.087 245.406 288.163 245.288 288.196C245.229 288.21 245.168 288.211 245.109 288.201C245.049 288.19 244.992 288.167 244.942 288.134L236.432 282.765L221.976 315.022Z" fill="#263238"/>
<path d="M236.503 265.568C236.505 266.479 236.236 267.371 235.73 268.13C235.225 268.889 234.506 269.48 233.664 269.83C232.822 270.18 231.895 270.272 231.001 270.094C230.107 269.917 229.285 269.478 228.64 268.833C227.996 268.189 227.557 267.367 227.38 266.473C227.202 265.579 227.294 264.652 227.644 263.81C227.993 262.968 228.585 262.249 229.344 261.743C230.103 261.238 230.994 260.969 231.906 260.971C233.124 260.973 234.292 261.458 235.154 262.32C236.015 263.181 236.5 264.349 236.503 265.568Z" fill="#407BFF"/>
<path d="M231.906 270.617C230.907 270.619 229.93 270.324 229.098 269.77C228.267 269.216 227.618 268.428 227.235 267.506C226.851 266.583 226.75 265.568 226.944 264.588C227.137 263.608 227.618 262.707 228.323 262C229.029 261.293 229.929 260.811 230.909 260.616C231.888 260.42 232.904 260.52 233.827 260.902C234.75 261.283 235.54 261.931 236.095 262.761C236.65 263.592 236.946 264.568 236.946 265.567C236.946 266.905 236.416 268.188 235.471 269.135C234.526 270.081 233.244 270.614 231.906 270.617ZM231.906 261.414C231.082 261.413 230.276 261.655 229.59 262.112C228.905 262.569 228.37 263.219 228.054 263.979C227.737 264.74 227.654 265.578 227.815 266.386C227.975 267.194 228.371 267.937 228.954 268.519C229.537 269.102 230.279 269.498 231.087 269.659C231.895 269.819 232.733 269.736 233.494 269.42C234.255 269.104 234.905 268.569 235.361 267.883C235.818 267.197 236.061 266.391 236.059 265.567C236.057 264.467 235.618 263.412 234.84 262.633C234.062 261.855 233.007 261.417 231.906 261.414Z" fill="#263238"/>
<path d="M312.9 254.075H269.195V315.466H312.9V254.075Z" fill="white"/>
<path d="M312.899 315.91H269.194C269.077 315.91 268.964 315.864 268.881 315.78C268.797 315.697 268.751 315.584 268.751 315.467V254.076C268.751 253.958 268.797 253.845 268.881 253.762C268.964 253.679 269.077 253.632 269.194 253.632H312.899C313.016 253.634 313.128 253.682 313.211 253.764C313.293 253.847 313.341 253.959 313.343 254.076V315.467C313.343 315.584 313.296 315.697 313.213 315.78C313.13 315.864 313.017 315.91 312.899 315.91ZM269.638 315.023H312.456V254.519H269.638V315.023Z" fill="#263238"/>
<path d="M312.9 271.602L306.599 264.219L293.066 287.761L284.139 282.082L269.195 315.466H312.9V271.602Z" fill="#407BFF"/>
<path d="M312.899 315.91H269.195C269.12 315.912 269.046 315.894 268.981 315.858C268.915 315.822 268.861 315.77 268.822 315.706C268.787 315.642 268.769 315.57 268.769 315.498C268.769 315.425 268.787 315.353 268.822 315.289L283.73 281.878C283.758 281.82 283.798 281.769 283.847 281.728C283.896 281.686 283.953 281.656 284.014 281.638C284.074 281.617 284.138 281.61 284.201 281.618C284.265 281.625 284.325 281.648 284.378 281.683L292.915 287.123L306.226 263.979C306.262 263.917 306.312 263.864 306.372 263.826C306.432 263.787 306.501 263.763 306.572 263.757C306.643 263.752 306.714 263.764 306.78 263.79C306.846 263.816 306.905 263.856 306.954 263.908L313.246 271.3C313.311 271.38 313.349 271.48 313.352 271.584V315.449C313.354 315.509 313.345 315.57 313.323 315.626C313.301 315.683 313.268 315.734 313.225 315.777C313.183 315.821 313.132 315.855 313.076 315.878C313.02 315.9 312.96 315.912 312.899 315.91ZM269.878 315.023H312.474V271.77L306.67 265.017L293.492 287.983C293.461 288.036 293.42 288.082 293.371 288.118C293.322 288.155 293.267 288.181 293.208 288.196C293.15 288.211 293.091 288.212 293.033 288.202C292.974 288.191 292.919 288.168 292.871 288.134L284.334 282.765L269.878 315.023Z" fill="#263238"/>
<path d="M284.414 265.568C284.416 266.479 284.147 267.37 283.642 268.129C283.137 268.887 282.418 269.479 281.577 269.829C280.736 270.179 279.809 270.272 278.915 270.095C278.021 269.918 277.2 269.48 276.555 268.836C275.91 268.193 275.47 267.372 275.292 266.478C275.113 265.585 275.204 264.658 275.552 263.816C275.901 262.974 276.491 262.254 277.249 261.748C278.006 261.241 278.897 260.971 279.808 260.971C281.028 260.973 282.196 261.458 283.059 262.319C283.922 263.181 284.409 264.348 284.414 265.568Z" fill="#407BFF"/>
<path d="M279.808 270.617C278.809 270.617 277.833 270.321 277.003 269.766C276.172 269.211 275.525 268.422 275.143 267.5C274.761 266.577 274.661 265.562 274.856 264.582C275.05 263.603 275.531 262.703 276.237 261.997C276.944 261.291 277.843 260.81 278.823 260.615C279.802 260.42 280.818 260.52 281.74 260.902C282.663 261.285 283.451 261.932 284.006 262.762C284.561 263.593 284.857 264.569 284.857 265.567C284.857 266.907 284.325 268.191 283.378 269.138C282.431 270.085 281.147 270.617 279.808 270.617ZM279.808 261.414C278.984 261.414 278.179 261.659 277.495 262.116C276.81 262.574 276.277 263.225 275.962 263.986C275.647 264.747 275.565 265.584 275.727 266.392C275.888 267.199 276.285 267.941 276.868 268.522C277.451 269.104 278.193 269.5 279.001 269.659C279.809 269.819 280.646 269.735 281.407 269.419C282.167 269.103 282.817 268.568 283.273 267.882C283.729 267.196 283.972 266.391 283.97 265.567C283.968 264.465 283.528 263.409 282.748 262.63C281.967 261.852 280.91 261.414 279.808 261.414Z" fill="#263238"/>
<path d="M217.086 254.075H173.381V315.466H217.086V254.075Z" fill="white"/>
<path d="M217.086 315.91H173.381C173.263 315.91 173.15 315.864 173.067 315.78C172.984 315.697 172.937 315.584 172.937 315.467V254.076C172.94 253.959 172.987 253.847 173.07 253.764C173.152 253.682 173.264 253.634 173.381 253.632H217.086C217.204 253.632 217.316 253.679 217.4 253.762C217.483 253.845 217.53 253.958 217.53 254.076V315.467C217.53 315.584 217.483 315.697 217.4 315.78C217.316 315.864 217.204 315.91 217.086 315.91ZM173.825 315.023H216.642V254.519H173.825V315.023Z" fill="#263238"/>
<path d="M195.184 269.498C193.762 269.495 192.352 269.772 191.037 270.314C189.721 270.856 188.525 271.652 187.518 272.657C186.511 273.662 185.712 274.856 185.166 276.17C184.621 277.484 184.34 278.893 184.34 280.316C184.34 286.315 195.184 297.851 195.184 297.851C195.184 297.851 206.002 286.315 206.002 280.298C205.997 277.432 204.856 274.685 202.827 272.66C200.799 270.636 198.05 269.498 195.184 269.498ZM195.184 284.584C194.344 284.584 193.522 284.335 192.823 283.868C192.124 283.401 191.579 282.737 191.257 281.96C190.936 281.184 190.851 280.329 191.015 279.504C191.179 278.68 191.584 277.922 192.179 277.328C192.773 276.733 193.531 276.329 194.355 276.165C195.18 276.001 196.034 276.085 196.811 276.406C197.588 276.728 198.252 277.273 198.719 277.972C199.186 278.671 199.435 279.493 199.435 280.334C199.426 281.454 198.974 282.525 198.177 283.313C197.381 284.101 196.305 284.542 195.184 284.54V284.584Z" fill="#407BFF"/>
<path d="M195.185 298.313C195.124 298.313 195.065 298.301 195.01 298.276C194.955 298.252 194.905 298.216 194.865 298.171C194.413 297.692 183.923 286.395 183.923 280.316C183.923 277.33 185.11 274.465 187.222 272.354C189.334 270.242 192.198 269.055 195.185 269.055C198.171 269.055 201.036 270.242 203.147 272.354C205.259 274.465 206.446 277.33 206.446 280.316C206.446 286.395 195.957 297.692 195.513 298.171C195.47 298.215 195.419 298.251 195.363 298.275C195.307 298.3 195.246 298.312 195.185 298.313ZM195.185 269.916C192.434 269.918 189.797 271.012 187.852 272.957C185.907 274.902 184.813 277.539 184.811 280.29C184.811 285.446 193.392 295.207 195.185 297.151C196.959 295.172 205.558 285.41 205.558 280.29C205.549 277.544 204.452 274.913 202.508 272.974C200.564 271.035 197.931 269.945 195.185 269.943V269.916ZM195.185 285.002C194.256 285.002 193.348 284.727 192.577 284.211C191.805 283.695 191.203 282.962 190.848 282.104C190.492 281.246 190.399 280.302 190.58 279.392C190.762 278.481 191.209 277.645 191.865 276.988C192.522 276.332 193.358 275.884 194.269 275.703C195.179 275.522 196.123 275.615 196.981 275.97C197.839 276.326 198.572 276.927 199.088 277.699C199.604 278.471 199.879 279.379 199.879 280.308C199.88 280.925 199.76 281.536 199.524 282.107C199.289 282.677 198.943 283.196 198.507 283.633C198.071 284.07 197.553 284.416 196.983 284.653C196.413 284.889 195.802 285.011 195.185 285.011V285.002ZM195.185 276.501C194.432 276.501 193.696 276.724 193.07 277.142C192.443 277.56 191.956 278.155 191.667 278.851C191.379 279.546 191.304 280.312 191.451 281.05C191.598 281.789 191.96 282.467 192.493 282.999C193.025 283.532 193.703 283.894 194.442 284.041C195.18 284.188 195.946 284.113 196.641 283.825C197.337 283.537 197.932 283.049 198.35 282.423C198.768 281.797 198.992 281.061 198.992 280.308C198.978 279.307 198.57 278.352 197.858 277.65C197.145 276.947 196.185 276.554 195.185 276.554V276.501Z" fill="#263238"/>
<path d="M216.642 287.797H210.289C210.171 287.797 210.058 287.75 209.975 287.667C209.892 287.584 209.845 287.471 209.845 287.353V262.08H184.847C184.729 262.08 184.616 262.033 184.533 261.95C184.45 261.867 184.403 261.754 184.403 261.636V254.723C184.405 254.606 184.453 254.495 184.535 254.412C184.618 254.329 184.73 254.282 184.847 254.28C184.964 254.28 185.077 254.326 185.16 254.41C185.243 254.493 185.29 254.606 185.29 254.723V261.192H210.289C210.406 261.195 210.517 261.242 210.6 261.325C210.683 261.408 210.73 261.519 210.732 261.636V286.91H216.642C216.76 286.91 216.873 286.956 216.956 287.04C217.039 287.123 217.086 287.236 217.086 287.353C217.086 287.471 217.039 287.584 216.956 287.667C216.873 287.75 216.76 287.797 216.642 287.797Z" fill="#263238"/>
<path d="M173.789 274.779C173.682 274.778 173.578 274.741 173.496 274.672C173.452 274.635 173.415 274.589 173.389 274.537C173.363 274.485 173.347 274.429 173.343 274.371C173.339 274.313 173.346 274.255 173.365 274.2C173.384 274.145 173.413 274.094 173.452 274.051L184.518 261.326C184.597 261.243 184.705 261.194 184.819 261.19C184.933 261.185 185.045 261.224 185.131 261.3C185.217 261.375 185.27 261.481 185.28 261.595C185.29 261.709 185.255 261.822 185.183 261.911L174.126 274.628C174.083 274.675 174.031 274.713 173.973 274.738C173.915 274.764 173.852 274.778 173.789 274.779Z" fill="#263238"/>
<path d="M199.781 315.44C199.664 315.44 199.551 315.393 199.468 315.31C199.384 315.227 199.338 315.114 199.338 314.996V300.345C199.338 300.227 199.384 300.115 199.468 300.031C199.551 299.948 199.664 299.901 199.781 299.901H209.845V287.353C209.845 287.236 209.891 287.123 209.975 287.04C210.058 286.956 210.171 286.91 210.288 286.91C210.406 286.91 210.519 286.956 210.602 287.04C210.685 287.123 210.732 287.236 210.732 287.353V300.345C210.732 300.463 210.685 300.576 210.602 300.659C210.519 300.742 210.406 300.789 210.288 300.789H200.225V314.987C200.226 315.046 200.216 315.105 200.194 315.16C200.172 315.215 200.14 315.265 200.098 315.307C200.057 315.349 200.008 315.382 199.953 315.405C199.899 315.428 199.84 315.44 199.781 315.44Z" fill="#263238"/>
<path d="M216.918 306.593H181.253C181.135 306.593 181.022 306.546 180.939 306.463C180.856 306.379 180.809 306.266 180.809 306.149V297.47H174.065C173.947 297.47 173.834 297.423 173.751 297.34C173.668 297.257 173.621 297.144 173.621 297.026C173.621 296.909 173.668 296.796 173.751 296.712C173.834 296.629 173.947 296.583 174.065 296.583H181.253C181.37 296.583 181.483 296.629 181.566 296.712C181.65 296.796 181.696 296.909 181.696 297.026V305.705H216.918C217.035 305.705 217.148 305.752 217.231 305.835C217.315 305.918 217.361 306.031 217.361 306.149C217.361 306.266 217.315 306.379 217.231 306.463C217.148 306.546 217.035 306.593 216.918 306.593Z" fill="#263238"/>
<path d="M187.615 315.44C187.497 315.44 187.385 315.393 187.301 315.31C187.218 315.227 187.171 315.114 187.171 314.996V306.424C187.171 306.306 187.218 306.193 187.301 306.11C187.385 306.027 187.497 305.98 187.615 305.98C187.733 305.98 187.846 306.027 187.929 306.11C188.012 306.193 188.059 306.306 188.059 306.424V314.996C188.059 315.114 188.012 315.227 187.929 315.31C187.846 315.393 187.733 315.44 187.615 315.44Z" fill="#263238"/>
<path d="M201.299 271.069C201.241 271.069 201.183 271.057 201.13 271.034C201.077 271.011 201.028 270.978 200.988 270.936C200.947 270.895 200.914 270.846 200.891 270.792C200.869 270.738 200.857 270.68 200.857 270.621C200.857 270.563 200.869 270.505 200.891 270.451C200.914 270.396 200.947 270.347 200.988 270.306L209.862 261.432V254.723C209.862 254.606 209.909 254.493 209.992 254.41C210.075 254.326 210.188 254.28 210.306 254.28C210.423 254.282 210.534 254.329 210.617 254.412C210.7 254.495 210.747 254.606 210.75 254.723V261.636C210.748 261.756 210.7 261.87 210.617 261.956L201.627 270.936C201.586 270.981 201.535 271.016 201.478 271.039C201.421 271.062 201.36 271.073 201.299 271.069Z" fill="#263238"/>
<path d="M185.956 286.413H173.789C173.672 286.413 173.559 286.366 173.476 286.283C173.392 286.199 173.346 286.087 173.346 285.969C173.346 285.851 173.392 285.738 173.476 285.655C173.559 285.572 173.672 285.525 173.789 285.525H185.956C186.073 285.525 186.186 285.572 186.27 285.655C186.353 285.738 186.4 285.851 186.4 285.969C186.4 286.087 186.353 286.199 186.27 286.283C186.186 286.366 186.073 286.413 185.956 286.413Z" fill="#263238"/>
<path d="M301.372 147.977H184.367V227.196H301.372V147.977Z" fill="white"/>
<path d="M301.363 227.639H184.34C184.223 227.639 184.11 227.593 184.027 227.509C183.943 227.426 183.897 227.313 183.897 227.196V147.977C183.897 147.859 183.943 147.746 184.027 147.663C184.11 147.58 184.223 147.533 184.34 147.533H301.363C301.481 147.533 301.594 147.58 301.677 147.663C301.76 147.746 301.807 147.859 301.807 147.977V227.196C301.807 227.313 301.76 227.426 301.677 227.509C301.594 227.593 301.481 227.639 301.363 227.639ZM184.811 226.752H300.919V148.42H184.811V226.752Z" fill="#263238"/>
<path d="M301.372 211.649H184.367V227.205H301.372V211.649Z" fill="#407BFF"/>
<path d="M301.363 227.639H184.34C184.223 227.639 184.11 227.593 184.027 227.509C183.943 227.426 183.897 227.313 183.897 227.196V211.648C183.897 211.531 183.943 211.418 184.027 211.335C184.11 211.251 184.223 211.205 184.34 211.205H301.363C301.481 211.205 301.594 211.251 301.677 211.335C301.76 211.418 301.807 211.531 301.807 211.648V227.196C301.807 227.313 301.76 227.426 301.677 227.509C301.594 227.593 301.481 227.639 301.363 227.639ZM184.811 226.752H300.919V212.092H184.811V226.752Z" fill="#263238"/>
<path d="M300.138 150.266H260.631V195.098H300.138V150.266Z" fill="white"/>
<path d="M300.138 195.551H260.658C260.541 195.548 260.429 195.501 260.346 195.418C260.264 195.336 260.216 195.224 260.214 195.107V150.266C260.216 150.149 260.264 150.038 260.346 149.955C260.429 149.872 260.541 149.825 260.658 149.823H300.165C300.283 149.823 300.396 149.869 300.479 149.952C300.562 150.036 300.609 150.149 300.609 150.266V195.107C300.609 195.168 300.597 195.228 300.573 195.283C300.549 195.339 300.514 195.389 300.47 195.431C300.425 195.472 300.373 195.504 300.316 195.525C300.259 195.546 300.199 195.554 300.138 195.551ZM261.092 194.663H299.704V150.71H261.075L261.092 194.663Z" fill="#263238"/>
<path d="M225.143 150.266H185.636V195.098H225.143V150.266Z" fill="white"/>
<path d="M225.161 195.551H185.636C185.518 195.551 185.406 195.504 185.322 195.421C185.239 195.338 185.192 195.225 185.192 195.107V150.266C185.192 150.149 185.239 150.036 185.322 149.952C185.406 149.869 185.518 149.823 185.636 149.823H225.161C225.278 149.825 225.39 149.872 225.473 149.955C225.555 150.038 225.603 150.149 225.605 150.266V195.107C225.603 195.224 225.555 195.336 225.473 195.418C225.39 195.501 225.278 195.548 225.161 195.551ZM186.115 194.663H224.735V150.71H186.115V194.663Z" fill="#263238"/>
<path d="M300.138 171.244L260.631 185.043V150.266H300.138V171.244Z" fill="#263238"/>
<path d="M260.658 185.488C260.599 185.489 260.541 185.478 260.486 185.456C260.432 185.434 260.383 185.402 260.341 185.36C260.3 185.319 260.267 185.269 260.245 185.215C260.223 185.161 260.213 185.102 260.214 185.044V150.266C260.216 150.149 260.264 150.038 260.346 149.955C260.429 149.872 260.541 149.825 260.658 149.823H300.165C300.283 149.823 300.396 149.869 300.479 149.952C300.562 150.036 300.609 150.149 300.609 150.266V171.245C300.609 171.336 300.581 171.425 300.528 171.499C300.476 171.574 300.402 171.631 300.316 171.662L260.809 185.461C260.76 185.478 260.709 185.487 260.658 185.488ZM261.101 150.71V184.432L299.704 170.952V150.71H261.101Z" fill="#263238"/>
<path d="M225.134 171.244L185.636 187.644V150.266H225.134V171.244Z" fill="#263238"/>
<path d="M185.636 188.088C185.548 188.087 185.462 188.063 185.388 188.017C185.327 187.975 185.278 187.919 185.244 187.854C185.21 187.789 185.192 187.717 185.192 187.644V150.266C185.192 150.149 185.239 150.036 185.322 149.952C185.406 149.869 185.518 149.823 185.636 149.823H225.161C225.278 149.825 225.39 149.872 225.473 149.955C225.555 150.038 225.603 150.149 225.605 150.266V171.245C225.603 171.332 225.577 171.417 225.528 171.489C225.479 171.562 225.41 171.619 225.33 171.653L185.822 188.052C185.764 188.079 185.7 188.092 185.636 188.088ZM186.08 150.71V186.978L224.7 170.952V150.71H186.08Z" fill="#263238"/>
<path d="M259.016 147.977H226.714V227.196H259.016V147.977Z" fill="#407BFF"/>
<path d="M259.016 227.639H226.714C226.596 227.639 226.483 227.593 226.4 227.509C226.317 227.426 226.27 227.313 226.27 227.196V147.977C226.273 147.86 226.32 147.748 226.403 147.665C226.485 147.583 226.597 147.535 226.714 147.533H259.016C259.133 147.535 259.244 147.583 259.327 147.665C259.41 147.748 259.457 147.86 259.459 147.977V227.196C259.459 227.313 259.413 227.426 259.329 227.509C259.246 227.593 259.133 227.639 259.016 227.639ZM227.158 226.752H258.572V148.42H227.158V226.752Z" fill="#263238"/>
<path d="M228.542 191.247H257.188V224.196H228.542V191.247ZM228.542 150.967V183.935H257.188V150.967H228.542Z" fill="white"/>
<path d="M257.188 224.658H228.542C228.425 224.655 228.314 224.608 228.231 224.525C228.148 224.442 228.101 224.331 228.099 224.214V191.247C228.099 191.129 228.145 191.016 228.229 190.933C228.312 190.85 228.425 190.803 228.542 190.803H257.188C257.306 190.803 257.418 190.85 257.502 190.933C257.585 191.016 257.632 191.129 257.632 191.247V224.196C257.633 224.256 257.622 224.315 257.601 224.37C257.579 224.425 257.547 224.476 257.505 224.519C257.464 224.562 257.415 224.596 257.36 224.62C257.306 224.644 257.247 224.657 257.188 224.658ZM228.986 223.77H256.744V191.69H228.986V223.77ZM257.188 184.378H228.542C228.425 184.378 228.312 184.331 228.229 184.248C228.145 184.165 228.099 184.052 228.099 183.934V150.967C228.101 150.85 228.148 150.739 228.231 150.656C228.314 150.573 228.425 150.526 228.542 150.523H257.188C257.305 150.526 257.416 150.573 257.499 150.656C257.582 150.739 257.629 150.85 257.632 150.967V183.934C257.632 183.993 257.62 184.05 257.598 184.104C257.576 184.158 257.543 184.207 257.502 184.248C257.46 184.289 257.412 184.322 257.358 184.344C257.304 184.367 257.246 184.378 257.188 184.378ZM228.986 183.491H256.744V151.429H228.986V183.491Z" fill="#263238"/>
<path d="M257.188 220.452V216.387L237.07 224.214H247.347L257.188 220.452Z" fill="#263238"/>
<path d="M228.542 174.359L257.188 161.856V150.967H228.542V174.359Z" fill="#263238"/>
<path d="M245.678 183.934L257.188 179.533V175.895L236.493 183.934H245.678Z" fill="#263238"/>
<path d="M228.542 219.351L257.188 207.602V191.247H228.542V219.351Z" fill="#263238"/>
<path d="M182.734 149.547C182.734 149.689 182.734 149.84 182.734 149.991C182.797 151.722 183.529 153.362 184.776 154.564C186.023 155.767 187.688 156.439 189.421 156.439C191.153 156.439 192.818 155.767 194.065 154.564C195.312 153.362 196.044 151.722 196.107 149.991C196.107 149.84 196.107 149.689 196.107 149.547H182.734Z" fill="white"/>
<path d="M189.399 157.117C187.516 157.117 185.71 156.369 184.379 155.037C183.047 153.706 182.299 151.9 182.299 150.017C182.299 149.884 182.299 149.76 182.299 149.636V149.547C182.306 149.434 182.356 149.328 182.438 149.25C182.521 149.173 182.63 149.13 182.743 149.13H196.054C196.167 149.13 196.276 149.173 196.359 149.25C196.441 149.328 196.491 149.434 196.498 149.547V149.636C196.498 149.76 196.498 149.884 196.498 150.017C196.498 151.9 195.75 153.706 194.419 155.037C193.087 156.369 191.281 157.117 189.399 157.117ZM183.187 150.017C183.187 151.673 183.844 153.261 185.015 154.432C186.186 155.602 187.774 156.26 189.43 156.26C191.085 156.26 192.673 155.602 193.844 154.432C195.015 153.261 195.673 151.673 195.673 150.017H183.187Z" fill="#263238"/>
<path d="M195.335 149.547C195.335 149.689 195.335 149.84 195.335 149.991C195.335 151.763 196.039 153.463 197.292 154.716C198.546 155.969 200.245 156.673 202.017 156.673C203.79 156.673 205.489 155.969 206.742 154.716C207.996 153.463 208.7 151.763 208.7 149.991C208.7 149.84 208.7 149.689 208.7 149.547H195.335Z" fill="#407BFF"/>
<path d="M202 157.117C200.117 157.117 198.311 156.369 196.98 155.037C195.649 153.706 194.901 151.9 194.901 150.017C194.901 149.884 194.901 149.751 194.901 149.627C194.909 149.505 194.958 149.39 195.04 149.3C195.123 149.209 195.233 149.15 195.353 149.13H208.664C208.776 149.13 208.884 149.171 208.966 149.247C209.048 149.323 209.099 149.427 209.108 149.538C209.108 149.751 209.108 149.884 209.108 150.017C209.108 150.95 208.924 151.874 208.567 152.736C208.209 153.598 207.686 154.381 207.026 155.04C206.365 155.7 205.582 156.222 204.719 156.579C203.857 156.935 202.933 157.118 202 157.117ZM195.788 150.017C195.788 151.672 196.445 153.259 197.615 154.429C198.785 155.599 200.372 156.256 202.027 156.256C203.681 156.256 205.268 155.599 206.438 154.429C207.608 153.259 208.265 151.672 208.265 150.017H195.788Z" fill="#263238"/>
<path d="M208.736 149.547C208.736 149.689 208.736 149.84 208.736 149.991C208.736 151.763 209.44 153.463 210.693 154.716C211.946 155.969 213.646 156.673 215.418 156.673C217.19 156.673 218.89 155.969 220.143 154.716C221.396 153.463 222.1 151.763 222.1 149.991C222.1 149.84 222.1 149.689 222.1 149.547H208.736Z" fill="white"/>
<path d="M215.4 157.117C213.517 157.117 211.711 156.369 210.38 155.037C209.048 153.706 208.301 151.9 208.301 150.017C208.301 149.884 208.301 149.751 208.301 149.618C208.307 149.498 208.355 149.384 208.436 149.295C208.517 149.206 208.626 149.148 208.744 149.13H222.055C222.167 149.13 222.275 149.171 222.357 149.247C222.439 149.323 222.49 149.427 222.499 149.538C222.499 149.751 222.499 149.884 222.499 150.017C222.499 151.9 221.751 153.706 220.42 155.037C219.088 156.369 217.283 157.117 215.4 157.117ZM209.188 150.017C209.188 151.672 209.845 153.259 211.015 154.429C212.185 155.599 213.772 156.256 215.426 156.256C217.081 156.256 218.668 155.599 219.838 154.429C221.008 153.259 221.665 151.672 221.665 150.017H209.188Z" fill="#263238"/>
<path d="M222.135 149.547C222.135 149.689 222.135 149.84 222.135 149.991C222.135 151.763 222.839 153.463 224.092 154.716C225.346 155.969 227.045 156.673 228.817 156.673C230.59 156.673 232.289 155.969 233.542 154.716C234.796 153.463 235.5 151.763 235.5 149.991C235.5 149.84 235.5 149.689 235.5 149.547H222.135Z" fill="#407BFF"/>
<path d="M228.8 157.117C226.917 157.117 225.111 156.369 223.78 155.037C222.448 153.706 221.7 151.9 221.7 150.017C221.7 149.884 221.7 149.76 221.7 149.636V149.547C221.707 149.434 221.757 149.328 221.839 149.25C221.922 149.173 222.031 149.13 222.144 149.13H235.455C235.569 149.13 235.678 149.173 235.76 149.25C235.842 149.328 235.892 149.434 235.899 149.547V149.636C235.899 149.76 235.899 149.884 235.899 150.017C235.899 151.9 235.151 153.706 233.82 155.037C232.488 156.369 230.683 157.117 228.8 157.117ZM222.588 150.017C222.588 151.672 223.245 153.259 224.415 154.429C225.585 155.599 227.172 156.256 228.826 156.256C230.481 156.256 232.068 155.599 233.238 154.429C234.408 153.259 235.065 151.672 235.065 150.017H222.588Z" fill="#263238"/>
<path d="M235.535 149.547C235.535 149.689 235.535 149.84 235.535 149.991C235.535 151.763 236.239 153.463 237.492 154.716C238.745 155.969 240.445 156.673 242.217 156.673C243.989 156.673 245.689 155.969 246.942 154.716C248.195 153.463 248.899 151.763 248.899 149.991C248.899 149.84 248.899 149.689 248.899 149.547H235.535Z" fill="white"/>
<path d="M242.2 157.117C240.317 157.117 238.511 156.369 237.18 155.037C235.848 153.706 235.1 151.9 235.1 150.017C235.1 149.884 235.1 149.76 235.1 149.636V149.547C235.107 149.434 235.157 149.328 235.239 149.25C235.322 149.173 235.431 149.13 235.544 149.13H248.855C248.968 149.13 249.077 149.173 249.16 149.25C249.242 149.328 249.292 149.434 249.299 149.547V149.636C249.299 149.76 249.299 149.884 249.299 150.017C249.299 151.9 248.551 153.706 247.22 155.037C245.888 156.369 244.082 157.117 242.2 157.117ZM235.988 150.017C235.988 151.672 236.645 153.259 237.815 154.429C238.985 155.599 240.572 156.256 242.226 156.256C243.881 156.256 245.468 155.599 246.638 154.429C247.807 153.259 248.465 151.672 248.465 150.017H235.988Z" fill="#263238"/>
<path d="M249.121 149.547C249.121 149.689 249.121 149.84 249.121 149.991C249.121 151.763 249.825 153.463 251.078 154.716C252.332 155.969 254.031 156.673 255.804 156.673C257.576 156.673 259.275 155.969 260.529 154.716C261.782 153.463 262.486 151.763 262.486 149.991C262.486 149.84 262.486 149.689 262.486 149.547H249.121Z" fill="#407BFF"/>
<path d="M255.759 157.117C253.876 157.117 252.071 156.369 250.739 155.037C249.408 153.706 248.66 151.9 248.66 150.017C248.66 149.884 248.66 149.751 248.66 149.618C248.667 149.498 248.714 149.384 248.795 149.295C248.876 149.206 248.985 149.148 249.104 149.13H262.415C262.528 149.13 262.637 149.173 262.719 149.25C262.802 149.328 262.852 149.434 262.858 149.547C262.858 149.751 262.858 149.884 262.858 150.017C262.858 151.9 262.11 153.706 260.779 155.037C259.448 156.369 257.642 157.117 255.759 157.117ZM249.547 150.017C249.547 151.672 250.205 153.259 251.375 154.429C252.544 155.599 254.131 156.256 255.786 156.256C257.44 156.256 259.027 155.599 260.197 154.429C261.367 153.259 262.024 151.672 262.024 150.017H249.547Z" fill="#263238"/>
<path d="M262.495 149.547C262.495 149.689 262.495 149.84 262.495 149.991C262.495 151.763 263.199 153.463 264.452 154.716C265.705 155.969 267.405 156.673 269.177 156.673C270.949 156.673 272.649 155.969 273.902 154.716C275.155 153.463 275.859 151.763 275.859 149.991C275.859 149.84 275.859 149.689 275.859 149.547H262.495Z" fill="white"/>
<path d="M269.159 157.117C267.276 157.117 265.471 156.369 264.139 155.037C262.808 153.706 262.06 151.9 262.06 150.017C262.06 149.884 262.06 149.76 262.06 149.636V149.547C262.067 149.434 262.116 149.328 262.199 149.25C262.281 149.173 262.39 149.13 262.504 149.13H275.815C275.928 149.13 276.037 149.173 276.119 149.25C276.202 149.328 276.252 149.434 276.258 149.547V149.636C276.258 149.76 276.258 149.884 276.258 150.017C276.258 151.9 275.51 153.706 274.179 155.037C272.848 156.369 271.042 157.117 269.159 157.117ZM262.947 150.017C262.947 151.672 263.605 153.259 264.774 154.429C265.944 155.599 267.531 156.256 269.186 156.256C270.84 156.256 272.427 155.599 273.597 154.429C274.767 153.259 275.424 151.672 275.424 150.017H262.947Z" fill="#263238"/>
<path d="M276.534 149.547C276.534 149.689 276.534 149.84 276.534 149.991C276.534 151.763 277.238 153.463 278.491 154.716C279.744 155.969 281.444 156.673 283.216 156.673C284.988 156.673 286.688 155.969 287.941 154.716C289.194 153.463 289.898 151.763 289.898 149.991C289.898 149.84 289.898 149.689 289.898 149.547H276.534Z" fill="#407BFF"/>
<path d="M283.198 157.117C281.315 157.117 279.509 156.369 278.178 155.037C276.846 153.706 276.098 151.9 276.098 150.017C276.098 149.884 276.098 149.76 276.098 149.636V149.547C276.105 149.434 276.155 149.328 276.237 149.25C276.32 149.173 276.429 149.13 276.542 149.13H289.853C289.966 149.13 290.075 149.173 290.158 149.25C290.24 149.328 290.29 149.434 290.297 149.547V149.636C290.297 149.76 290.297 149.884 290.297 150.017C290.297 151.9 289.549 153.706 288.218 155.037C286.886 156.369 285.081 157.117 283.198 157.117ZM276.986 150.017C276.986 151.672 277.643 153.259 278.813 154.429C279.983 155.599 281.57 156.256 283.224 156.256C284.879 156.256 286.466 155.599 287.636 154.429C288.806 153.259 289.463 151.672 289.463 150.017H276.986Z" fill="#263238"/>
<path d="M289.942 149.547C289.942 149.689 289.942 149.84 289.942 149.991C289.942 151.763 290.646 153.463 291.899 154.716C293.152 155.969 294.852 156.673 296.624 156.673C298.397 156.673 300.096 155.969 301.349 154.716C302.603 153.463 303.307 151.763 303.307 149.991C303.307 149.84 303.307 149.689 303.307 149.547H289.942Z" fill="white"/>
<path d="M296.598 157.117C294.715 157.117 292.909 156.369 291.578 155.037C290.246 153.706 289.499 151.9 289.499 150.017C289.499 149.884 289.499 149.76 289.499 149.636V149.547C289.505 149.434 289.555 149.328 289.638 149.25C289.72 149.173 289.829 149.13 289.942 149.13H303.253C303.367 149.13 303.476 149.173 303.558 149.25C303.641 149.328 303.69 149.434 303.697 149.547C303.697 149.751 303.697 149.884 303.697 150.017C303.697 151.9 302.949 153.706 301.618 155.037C300.286 156.369 298.481 157.117 296.598 157.117ZM290.386 150.017C290.386 151.672 291.043 153.259 292.213 154.429C293.383 155.599 294.97 156.256 296.624 156.256C298.279 156.256 299.866 155.599 301.036 154.429C302.206 153.259 302.863 151.672 302.863 150.017H290.386Z" fill="#263238"/>
<path d="M257.996 188.034C257.996 187.647 257.881 187.267 257.665 186.945C257.45 186.622 257.143 186.371 256.785 186.223C256.427 186.074 256.032 186.035 255.652 186.111C255.271 186.187 254.922 186.373 254.648 186.648C254.373 186.922 254.187 187.271 254.111 187.652C254.035 188.032 254.074 188.427 254.223 188.785C254.371 189.143 254.622 189.45 254.945 189.665C255.267 189.881 255.647 189.996 256.034 189.996C256.292 189.997 256.548 189.947 256.786 189.849C257.025 189.751 257.241 189.606 257.424 189.424C257.606 189.241 257.751 189.025 257.849 188.786C257.947 188.548 257.997 188.292 257.996 188.034Z" fill="white"/>
<path d="M256.016 190.475C255.541 190.475 255.076 190.334 254.68 190.07C254.285 189.805 253.977 189.43 253.795 188.99C253.613 188.551 253.565 188.067 253.658 187.601C253.751 187.134 253.98 186.706 254.316 186.369C254.652 186.033 255.081 185.804 255.547 185.711C256.014 185.618 256.497 185.666 256.937 185.848C257.376 186.03 257.752 186.338 258.016 186.734C258.28 187.129 258.421 187.594 258.421 188.07C258.421 188.708 258.168 189.319 257.717 189.77C257.266 190.221 256.654 190.475 256.016 190.475ZM256.016 186.561C255.716 186.561 255.422 186.651 255.172 186.818C254.923 186.985 254.728 187.222 254.614 187.5C254.499 187.778 254.47 188.084 254.529 188.378C254.588 188.673 254.734 188.943 254.947 189.155C255.16 189.367 255.431 189.511 255.726 189.568C256.021 189.626 256.326 189.594 256.603 189.478C256.88 189.362 257.117 189.166 257.283 188.915C257.448 188.665 257.536 188.37 257.534 188.07C257.537 187.868 257.501 187.668 257.426 187.481C257.351 187.294 257.24 187.123 257.099 186.98C256.958 186.836 256.789 186.722 256.603 186.644C256.418 186.566 256.218 186.526 256.016 186.526V186.561Z" fill="#263238"/>
<path d="M256.016 188.531C256.291 188.531 256.513 188.309 256.513 188.034C256.513 187.76 256.291 187.537 256.016 187.537C255.742 187.537 255.52 187.76 255.52 188.034C255.52 188.309 255.742 188.531 256.016 188.531Z" fill="white"/>
<path d="M256.016 188.984C255.829 188.984 255.645 188.928 255.489 188.824C255.333 188.72 255.211 188.571 255.139 188.398C255.067 188.224 255.048 188.033 255.085 187.849C255.122 187.665 255.212 187.496 255.345 187.363C255.478 187.23 255.647 187.14 255.831 187.103C256.015 187.067 256.206 187.085 256.38 187.157C256.553 187.229 256.702 187.351 256.806 187.507C256.91 187.663 256.966 187.847 256.966 188.034C256.966 188.286 256.866 188.528 256.688 188.706C256.51 188.884 256.268 188.984 256.016 188.984ZM256.016 187.981V188.097L256.079 188.034C256.076 188.02 256.069 188.006 256.057 187.996C256.046 187.986 256.031 187.981 256.016 187.981Z" fill="#263238"/>
<path d="M291.646 127.779L194.838 128.303L182.734 149.663H303.449L291.646 127.779Z" fill="white"/>
<path d="M303.449 150.106H182.761C182.683 150.108 182.606 150.088 182.539 150.049C182.472 150.01 182.417 149.953 182.379 149.885C182.34 149.819 182.32 149.744 182.32 149.667C182.32 149.591 182.34 149.516 182.379 149.45L194.475 128.081C194.515 128.015 194.571 127.96 194.637 127.921C194.704 127.883 194.779 127.861 194.856 127.859L291.673 127.335C291.752 127.336 291.83 127.358 291.899 127.398C291.967 127.439 292.024 127.497 292.063 127.566L303.866 149.45C303.903 149.517 303.921 149.594 303.92 149.671C303.919 149.748 303.897 149.823 303.858 149.889C303.818 149.956 303.762 150.011 303.695 150.049C303.628 150.087 303.552 150.107 303.475 150.106H303.449ZM183.497 149.219H302.703L291.38 128.223L195.096 128.746L183.497 149.219Z" fill="#263238"/>
<path d="M280.784 127.832L194.838 128.303L182.734 149.663H289.836L280.784 127.832Z" fill="#407BFF"/>
<path d="M289.836 150.106H182.734C182.656 150.108 182.58 150.088 182.512 150.049C182.445 150.01 182.39 149.953 182.353 149.885C182.314 149.819 182.293 149.744 182.293 149.667C182.293 149.591 182.314 149.515 182.353 149.45L194.448 128.081C194.488 128.015 194.544 127.96 194.611 127.921C194.677 127.883 194.753 127.861 194.83 127.859L280.784 127.389C280.872 127.389 280.957 127.415 281.03 127.464C281.103 127.513 281.159 127.583 281.192 127.664L290.244 149.494C290.279 149.558 290.297 149.63 290.297 149.703C290.297 149.775 290.279 149.847 290.244 149.911C290.199 149.977 290.138 150.029 290.066 150.063C289.994 150.098 289.915 150.113 289.836 150.106ZM183.497 149.219H289.17L280.491 128.276L195.096 128.746L183.497 149.219Z" fill="#263238"/>
<path d="M269.825 127.895L194.838 128.303L182.734 149.663H276.107L269.825 127.895Z" fill="white"/>
<path d="M276.108 150.106H182.734C182.656 150.107 182.58 150.088 182.512 150.048C182.445 150.009 182.39 149.953 182.353 149.884C182.314 149.818 182.293 149.743 182.293 149.667C182.293 149.59 182.314 149.515 182.353 149.449L194.448 128.081C194.488 128.015 194.544 127.96 194.611 127.921C194.677 127.882 194.753 127.861 194.83 127.859L269.816 127.45C269.914 127.447 270.01 127.477 270.089 127.535C270.168 127.593 270.225 127.676 270.251 127.77L276.533 149.538C276.556 149.604 276.561 149.674 276.549 149.743C276.536 149.811 276.507 149.875 276.462 149.929C276.422 149.985 276.369 150.03 276.307 150.061C276.245 150.092 276.177 150.107 276.108 150.106ZM183.497 149.219H275.522L269.532 128.356L195.14 128.764L183.497 149.219Z" fill="#263238"/>
<path d="M259.096 127.948L194.838 128.303L182.734 149.663H262.708L259.096 127.948Z" fill="#407BFF"/>
<path d="M262.708 150.106H182.734C182.656 150.108 182.58 150.088 182.512 150.049C182.445 150.01 182.39 149.953 182.353 149.885C182.314 149.819 182.293 149.744 182.293 149.667C182.293 149.591 182.314 149.516 182.353 149.45L194.448 128.081C194.488 128.015 194.544 127.96 194.611 127.921C194.677 127.883 194.753 127.861 194.83 127.859L259.096 127.504C259.202 127.505 259.304 127.542 259.385 127.61C259.466 127.678 259.521 127.773 259.54 127.877L263.142 149.592C263.153 149.656 263.15 149.722 263.133 149.784C263.116 149.847 263.086 149.906 263.045 149.956C263.003 150.004 262.951 150.042 262.893 150.068C262.834 150.094 262.771 150.107 262.708 150.106ZM183.497 149.219H262.184L258.723 128.4L195.096 128.747L183.497 149.219Z" fill="#263238"/>
<path d="M248.056 128.01L194.838 128.303L182.734 149.663H248.917L248.056 128.01Z" fill="white"/>
<path d="M248.917 150.106H182.734C182.656 150.108 182.58 150.088 182.512 150.048C182.445 150.009 182.39 149.953 182.353 149.884C182.314 149.818 182.293 149.743 182.293 149.667C182.293 149.59 182.314 149.515 182.353 149.449L194.448 128.081C194.488 128.015 194.544 127.96 194.611 127.921C194.677 127.882 194.753 127.861 194.83 127.859L248.074 127.566C248.189 127.566 248.299 127.61 248.382 127.69C248.465 127.769 248.513 127.877 248.518 127.992L249.405 149.645C249.41 149.705 249.401 149.766 249.379 149.823C249.358 149.879 249.324 149.931 249.281 149.973C249.235 150.022 249.178 150.06 249.115 150.083C249.052 150.106 248.984 150.114 248.917 150.106ZM183.497 149.219H248.456L247.631 128.453L195.096 128.746L183.497 149.219Z" fill="#263238"/>
<path d="M237.186 128.072L194.838 128.303L182.734 149.663H235.366L237.186 128.072Z" fill="#407BFF"/>
<path d="M235.367 150.107H182.734C182.656 150.108 182.58 150.088 182.512 150.049C182.445 150.01 182.39 149.953 182.353 149.885C182.314 149.819 182.293 149.744 182.293 149.667C182.293 149.591 182.314 149.516 182.353 149.45L194.448 128.081C194.488 128.015 194.544 127.96 194.611 127.921C194.677 127.883 194.753 127.861 194.83 127.859L237.186 127.628C237.247 127.628 237.308 127.641 237.364 127.665C237.42 127.69 237.471 127.726 237.513 127.771C237.554 127.816 237.586 127.869 237.606 127.927C237.626 127.985 237.634 128.046 237.629 128.108L235.81 149.698C235.801 149.81 235.751 149.914 235.668 149.989C235.586 150.065 235.478 150.107 235.367 150.107ZM183.497 149.219H234.967L236.742 128.516L195.131 128.747L183.497 149.219Z" fill="#263238"/>
<path d="M226.563 128.125L194.838 128.303L182.734 149.663H222.144L226.563 128.125Z" fill="white"/>
<path d="M222.144 150.106H182.734C182.656 150.108 182.58 150.088 182.512 150.049C182.445 150.009 182.39 149.953 182.353 149.884C182.314 149.819 182.293 149.743 182.293 149.667C182.293 149.59 182.314 149.515 182.353 149.45L194.448 128.081C194.488 128.015 194.544 127.96 194.611 127.921C194.677 127.882 194.753 127.861 194.83 127.859L226.563 127.681C226.696 127.691 226.82 127.751 226.909 127.85C226.952 127.9 226.982 127.958 226.997 128.021C227.012 128.085 227.013 128.15 226.998 128.214L222.561 149.751C222.541 149.849 222.49 149.936 222.414 150.001C222.338 150.065 222.243 150.102 222.144 150.106ZM183.497 149.219H221.78L226.049 128.578L195.122 128.746L183.497 149.219Z" fill="#263238"/>
<path d="M215.835 128.187L194.838 128.303L182.734 149.663H208.797L215.835 128.187Z" fill="#407BFF"/>
<path d="M208.797 150.107H182.734C182.656 150.108 182.58 150.088 182.512 150.049C182.445 150.01 182.39 149.953 182.353 149.885C182.314 149.819 182.293 149.744 182.293 149.667C182.293 149.591 182.314 149.516 182.353 149.45L194.448 128.081C194.488 128.015 194.544 127.96 194.611 127.922C194.677 127.883 194.753 127.861 194.83 127.859L215.835 127.744C215.905 127.745 215.973 127.762 216.036 127.792C216.099 127.823 216.154 127.867 216.198 127.921C216.238 127.979 216.265 128.045 216.276 128.114C216.286 128.183 216.281 128.254 216.261 128.321L209.188 149.805C209.159 149.888 209.107 149.96 209.037 150.014C208.968 150.067 208.885 150.1 208.797 150.107ZM183.497 149.219H208.478L215.222 128.631L195.096 128.747L183.497 149.219Z" fill="#263238"/>
<path d="M205.159 128.24L194.838 128.303L182.734 149.663H195.539L205.159 128.24Z" fill="white"/>
<path d="M195.531 150.106H182.734C182.656 150.108 182.58 150.088 182.512 150.049C182.445 150.01 182.39 149.953 182.353 149.885C182.314 149.819 182.293 149.744 182.293 149.667C182.293 149.591 182.314 149.516 182.353 149.45L194.448 128.081C194.488 128.015 194.544 127.96 194.611 127.921C194.677 127.883 194.753 127.861 194.83 127.859L205.15 127.797C205.225 127.796 205.299 127.814 205.365 127.849C205.431 127.885 205.487 127.936 205.528 127.999C205.569 128.062 205.593 128.134 205.598 128.209C205.604 128.284 205.59 128.359 205.558 128.427L195.939 149.849C195.903 149.927 195.845 149.992 195.773 150.038C195.7 150.084 195.616 150.107 195.531 150.106ZM183.497 149.219H195.247L204.467 128.693L195.096 128.746L183.497 149.219Z" fill="#263238"/>
<path d="M399.839 140.593H354.039C352.697 140.593 351.41 141.125 350.46 142.074C349.51 143.022 348.975 144.309 348.972 145.651V174.501C348.975 175.843 349.51 177.13 350.46 178.078C351.41 179.026 352.697 179.559 354.039 179.559H355.024L337.693 196.508L364.972 179.559H399.839C401.179 179.557 402.465 179.023 403.413 178.075C404.361 177.127 404.895 175.842 404.897 174.501V145.651C404.897 144.309 404.364 143.023 403.415 142.074C402.467 141.126 401.18 140.593 399.839 140.593Z" fill="white"/>
<path d="M337.693 196.961C337.627 196.962 337.56 196.947 337.5 196.918C337.44 196.889 337.388 196.846 337.347 196.793C337.274 196.712 337.234 196.608 337.234 196.5C337.234 196.391 337.274 196.287 337.347 196.207L353.906 180.012C352.466 179.979 351.095 179.385 350.087 178.355C349.078 177.325 348.513 175.942 348.511 174.501V145.651C348.513 144.191 349.095 142.792 350.128 141.76C351.161 140.729 352.562 140.149 354.022 140.149H399.821C401.279 140.152 402.678 140.732 403.709 141.763C404.74 142.795 405.321 144.193 405.323 145.651V174.501C405.323 175.961 404.744 177.361 403.712 178.394C402.68 179.428 401.281 180.009 399.821 180.012H365.097L337.924 196.872C337.858 196.924 337.777 196.955 337.693 196.961ZM354.039 141.054C352.815 141.054 351.64 141.54 350.773 142.405C349.907 143.271 349.418 144.444 349.416 145.669V174.501C349.418 175.726 349.906 176.901 350.773 177.767C351.639 178.634 352.814 179.122 354.039 179.124H355.024C355.113 179.124 355.2 179.15 355.274 179.199C355.347 179.248 355.405 179.319 355.438 179.401C355.472 179.483 355.48 179.573 355.461 179.66C355.443 179.747 355.399 179.826 355.335 179.887L340.897 194.024L364.733 179.204C364.805 179.161 364.888 179.14 364.972 179.142H399.839C401.06 179.128 402.225 178.632 403.083 177.763C403.94 176.894 404.42 175.722 404.418 174.501V145.651C404.415 144.428 403.928 143.256 403.064 142.391C402.199 141.526 401.026 141.039 399.803 141.037L354.039 141.054Z" fill="#263238"/>
<path d="M392.269 155.182C392.27 156.315 392.048 157.437 391.614 158.483C391.18 159.529 390.543 160.479 389.74 161.279L376.713 174.306L364.484 162.077L363.65 161.243C362.068 159.618 361.189 157.435 361.205 155.167C361.22 152.898 362.129 150.728 363.733 149.124C365.338 147.521 367.509 146.614 369.777 146.6C372.046 146.586 374.228 147.466 375.852 149.05L376.686 149.884L377.512 149.05C378.718 147.845 380.254 147.024 381.927 146.692C383.599 146.359 385.333 146.53 386.908 147.183C388.484 147.835 389.83 148.94 390.778 150.357C391.726 151.775 392.233 153.441 392.234 155.147L392.269 155.182Z" fill="#407BFF"/>
<path d="M376.713 174.749C376.594 174.749 376.481 174.705 376.393 174.625L363.375 161.589C362.533 160.747 361.865 159.748 361.409 158.647C360.954 157.547 360.719 156.368 360.719 155.178C360.719 153.987 360.954 152.808 361.409 151.708C361.865 150.608 362.533 149.608 363.375 148.766C364.217 147.924 365.216 147.256 366.316 146.8C367.416 146.345 368.596 146.11 369.786 146.11C370.977 146.11 372.156 146.345 373.256 146.8C374.356 147.256 375.356 147.924 376.198 148.766L376.721 149.281L377.227 148.766C378.062 147.894 379.062 147.197 380.17 146.717C381.277 146.236 382.47 145.982 383.677 145.968C384.884 145.954 386.082 146.182 387.2 146.637C388.318 147.092 389.334 147.766 390.188 148.619C391.042 149.472 391.717 150.487 392.174 151.605C392.631 152.722 392.86 153.92 392.848 155.127C392.836 156.334 392.583 157.527 392.104 158.635C391.625 159.743 390.93 160.744 390.059 161.58L377.023 174.616C376.941 174.7 376.83 174.748 376.713 174.749ZM369.808 146.991C368.191 146.99 366.609 147.469 365.264 148.368C363.919 149.267 362.871 150.544 362.252 152.039C361.633 153.534 361.472 155.178 361.789 156.765C362.106 158.351 362.886 159.808 364.031 160.95L376.739 173.667L389.456 160.95C390.312 160.217 391.008 159.314 391.5 158.299C391.991 157.284 392.267 156.178 392.311 155.051C392.354 153.924 392.165 152.8 391.753 151.75C391.342 150.7 390.718 149.747 389.92 148.949C389.123 148.152 388.169 147.528 387.119 147.116C386.069 146.705 384.945 146.515 383.818 146.559C382.691 146.602 381.586 146.879 380.571 147.37C379.555 147.861 378.653 148.557 377.919 149.414L377.094 150.239C377.054 150.282 377.006 150.316 376.953 150.339C376.899 150.361 376.842 150.373 376.784 150.372C376.724 150.373 376.665 150.362 376.61 150.339C376.555 150.316 376.505 150.282 376.464 150.239L375.639 149.414C374.877 148.642 373.969 148.03 372.968 147.614C371.967 147.198 370.893 146.986 369.808 146.991Z" fill="#263238"/>
<path d="M433.383 207.859H352.629C350.746 207.859 348.941 208.607 347.609 209.938C346.278 211.27 345.53 213.076 345.53 214.958V227.045C345.533 228.369 345.906 229.665 346.607 230.788C347.308 231.91 348.309 232.815 349.497 233.399L333.701 248.822L359.507 234.126H433.348C435.231 234.126 437.037 233.379 438.368 232.047C439.699 230.716 440.447 228.91 440.447 227.027V214.941C440.443 213.067 439.697 211.271 438.374 209.945C437.051 208.618 435.257 207.868 433.383 207.859Z" fill="#407BFF"/>
<path d="M333.736 249.248C333.648 249.249 333.561 249.223 333.487 249.173C333.413 249.124 333.356 249.054 333.323 248.972C333.289 248.889 333.281 248.799 333.299 248.712C333.318 248.626 333.362 248.546 333.426 248.485L348.796 233.479C347.673 232.818 346.743 231.875 346.098 230.743C345.454 229.611 345.117 228.33 345.122 227.027V214.941C345.122 212.945 345.914 211.031 347.326 209.62C348.737 208.208 350.651 207.416 352.647 207.416H433.401C435.397 207.416 437.311 208.208 438.722 209.62C440.134 211.031 440.926 212.945 440.926 214.941V227.027C440.926 229.023 440.134 230.937 438.722 232.348C437.311 233.76 435.397 234.553 433.401 234.553H359.657L333.923 249.186C333.865 249.219 333.802 249.24 333.736 249.248ZM352.647 208.303C350.887 208.305 349.2 209.005 347.956 210.25C346.711 211.494 346.011 213.181 346.009 214.941V227.027C346.006 228.269 346.354 229.486 347.011 230.54C347.669 231.593 348.61 232.439 349.727 232.982C349.792 233.013 349.848 233.059 349.891 233.116C349.934 233.173 349.963 233.24 349.976 233.31C349.985 233.381 349.978 233.453 349.955 233.521C349.932 233.589 349.894 233.65 349.843 233.701L336.532 246.71L359.338 233.718C359.407 233.683 359.483 233.665 359.56 233.665H433.401C435.162 233.665 436.85 232.966 438.095 231.721C439.34 230.476 440.039 228.788 440.039 227.027V214.941C440.039 213.18 439.34 211.492 438.095 210.247C436.85 209.002 435.162 208.303 433.401 208.303H352.647Z" fill="#263238"/>
<path d="M357.927 215.651L359.249 219.724H363.535L360.066 222.244L361.388 226.317L357.927 223.797L354.457 226.317L355.779 222.244L352.319 219.724H356.596L357.927 215.651Z" fill="white"/>
<path d="M361.388 226.761C361.294 226.762 361.203 226.73 361.13 226.672L357.927 224.347L354.723 226.672C354.649 226.728 354.559 226.759 354.466 226.759C354.373 226.759 354.283 226.728 354.209 226.672C354.132 226.619 354.074 226.544 354.044 226.456C354.014 226.368 354.012 226.273 354.04 226.184L355.256 222.421L352.061 220.079C351.986 220.025 351.93 219.949 351.901 219.861C351.873 219.773 351.873 219.678 351.901 219.591C351.93 219.5 351.987 219.421 352.063 219.365C352.14 219.309 352.232 219.279 352.327 219.28H356.285L357.51 215.509C357.546 215.427 357.605 215.358 357.68 215.309C357.755 215.261 357.842 215.235 357.931 215.235C358.02 215.235 358.108 215.261 358.183 215.309C358.257 215.358 358.317 215.427 358.353 215.509L359.577 219.28H363.544C363.638 219.281 363.728 219.312 363.803 219.368C363.878 219.424 363.933 219.502 363.961 219.591C363.99 219.678 363.99 219.773 363.961 219.861C363.932 219.949 363.877 220.025 363.802 220.079L360.589 222.421L361.814 226.193C361.841 226.281 361.84 226.375 361.812 226.462C361.783 226.55 361.728 226.626 361.654 226.681C361.577 226.737 361.483 226.766 361.388 226.761ZM353.685 220.167L356.046 221.88C356.119 221.937 356.174 222.015 356.202 222.104C356.231 222.193 356.232 222.288 356.205 222.377L355.318 225.155L357.678 223.442C357.754 223.386 357.846 223.357 357.94 223.357C358.034 223.357 358.126 223.386 358.202 223.442L360.562 225.155L359.675 222.377C359.648 222.287 359.65 222.191 359.68 222.102C359.71 222.013 359.767 221.935 359.844 221.88L362.204 220.167H359.249C359.154 220.168 359.062 220.138 358.985 220.082C358.908 220.026 358.852 219.947 358.823 219.857L357.936 217.088L357.048 219.857C357.02 219.947 356.963 220.026 356.886 220.082C356.81 220.138 356.717 220.168 356.622 220.167H353.685Z" fill="#263238"/>
<path d="M375.471 215.651L376.793 219.724H381.08L377.61 222.244L378.932 226.317L375.471 223.797L372.001 226.317L373.324 222.244L369.863 219.724H374.149L375.471 215.651Z" fill="white"/>
<path d="M372.001 226.761C371.908 226.762 371.817 226.73 371.744 226.672C371.667 226.62 371.609 226.544 371.58 226.456C371.551 226.367 371.553 226.272 371.584 226.184L372.809 222.413L369.596 220.079C369.522 220.023 369.467 219.945 369.439 219.856C369.411 219.767 369.412 219.672 369.442 219.583C369.471 219.495 369.528 219.418 369.603 219.364C369.679 219.309 369.77 219.28 369.863 219.28H373.82L375.045 215.509C375.076 215.42 375.134 215.344 375.21 215.29C375.286 215.236 375.378 215.207 375.471 215.207C375.564 215.206 375.654 215.235 375.729 215.289C375.804 215.344 375.86 215.42 375.888 215.509L377.113 219.28H381.08C381.174 219.278 381.265 219.308 381.341 219.364C381.416 219.42 381.471 219.5 381.497 219.591C381.528 219.678 381.53 219.774 381.501 219.862C381.472 219.951 381.414 220.027 381.337 220.079L378.133 222.421L379.358 226.193C379.387 226.281 379.387 226.375 379.358 226.463C379.329 226.551 379.273 226.627 379.198 226.681C379.122 226.737 379.031 226.766 378.936 226.766C378.842 226.766 378.751 226.737 378.675 226.681L375.471 224.356L372.268 226.681C372.191 226.737 372.097 226.765 372.001 226.761ZM371.229 220.167L373.59 221.88C373.664 221.936 373.72 222.014 373.749 222.103C373.777 222.192 373.777 222.288 373.75 222.377L372.862 225.155L375.231 223.442C375.306 223.386 375.396 223.355 375.489 223.355C375.582 223.355 375.672 223.386 375.746 223.442L378.107 225.155L377.219 222.377C377.189 222.288 377.187 222.192 377.216 222.102C377.245 222.012 377.302 221.935 377.379 221.88L379.74 220.167H376.82C376.725 220.168 376.633 220.138 376.556 220.082C376.479 220.026 376.422 219.947 376.394 219.857L375.507 217.088L374.619 219.857C374.592 219.947 374.537 220.025 374.462 220.081C374.387 220.137 374.296 220.168 374.202 220.167H371.229Z" fill="#263238"/>
<path d="M393.015 215.651L394.337 219.724H398.624L395.154 222.244L396.485 226.317L393.015 223.797L389.554 226.317L390.877 222.244L387.407 219.724H391.693L393.015 215.651Z" fill="white"/>
<path d="M389.555 226.761C389.458 226.763 389.364 226.732 389.288 226.672C389.213 226.618 389.157 226.542 389.129 226.454C389.1 226.366 389.1 226.272 389.129 226.184L390.353 222.413L387.15 220.079C387.072 220.027 387.015 219.951 386.986 219.862C386.957 219.774 386.958 219.678 386.99 219.591C387.015 219.5 387.07 219.42 387.146 219.364C387.221 219.308 387.313 219.278 387.407 219.28H391.374L392.598 215.509C392.627 215.42 392.682 215.344 392.757 215.289C392.832 215.235 392.923 215.206 393.015 215.207C393.109 215.207 393.2 215.236 393.276 215.29C393.353 215.344 393.41 215.42 393.441 215.509L394.666 219.28H398.624C398.719 219.279 398.811 219.309 398.888 219.365C398.965 219.421 399.021 219.5 399.05 219.591C399.078 219.679 399.076 219.775 399.046 219.862C399.016 219.95 398.958 220.026 398.881 220.079L395.678 222.421L396.902 226.193C396.934 226.28 396.935 226.376 396.906 226.464C396.878 226.553 396.82 226.629 396.743 226.681C396.667 226.737 396.575 226.766 396.481 226.766C396.387 226.766 396.295 226.737 396.219 226.681L393.015 224.356L389.812 226.681C389.738 226.736 389.647 226.764 389.555 226.761ZM388.774 220.167L391.134 221.88C391.211 221.935 391.268 222.012 391.297 222.102C391.326 222.192 391.325 222.288 391.294 222.377L390.406 225.155L392.767 223.442C392.842 223.385 392.934 223.354 393.029 223.354C393.123 223.354 393.215 223.385 393.291 223.442L395.651 225.155L394.764 222.377C394.736 222.288 394.736 222.192 394.765 222.103C394.793 222.014 394.849 221.936 394.923 221.88L397.284 220.167H394.364C394.271 220.168 394.179 220.137 394.104 220.081C394.029 220.025 393.974 219.947 393.947 219.857L393.06 217.088L392.172 219.857C392.147 219.947 392.092 220.027 392.017 220.083C391.941 220.139 391.849 220.169 391.755 220.167H388.774Z" fill="#263238"/>
<path d="M410.559 215.651L411.89 219.724H416.168L412.707 222.244L414.029 226.317L410.559 223.797L407.098 226.317L408.421 222.244L404.951 219.724H409.237L410.559 215.651Z" fill="white"/>
<path d="M414.029 226.761C413.936 226.762 413.845 226.731 413.772 226.672L410.559 224.347L407.356 226.672C407.28 226.729 407.189 226.76 407.094 226.76C407 226.76 406.908 226.729 406.832 226.672C406.758 226.617 406.703 226.541 406.675 226.454C406.646 226.366 406.645 226.272 406.673 226.184L407.897 222.413L404.694 220.079C404.616 220.027 404.559 219.951 404.53 219.862C404.501 219.774 404.502 219.678 404.534 219.591C404.562 219.502 404.617 219.424 404.692 219.368C404.767 219.312 404.858 219.281 404.951 219.28H408.918L410.142 215.509C410.179 215.427 410.238 215.358 410.313 215.309C410.387 215.261 410.475 215.235 410.564 215.235C410.653 215.235 410.74 215.261 410.815 215.309C410.89 215.358 410.949 215.427 410.985 215.509L412.21 219.28H416.168C416.263 219.279 416.355 219.309 416.432 219.365C416.509 219.421 416.565 219.5 416.594 219.591C416.622 219.678 416.622 219.773 416.594 219.861C416.565 219.949 416.509 220.025 416.434 220.079L413.23 222.421L414.455 226.193C414.483 226.282 414.481 226.377 414.451 226.465C414.421 226.553 414.363 226.628 414.287 226.681C414.213 226.737 414.122 226.765 414.029 226.761ZM410.559 223.353C410.656 223.351 410.75 223.383 410.826 223.442L413.186 225.155L412.299 222.377C412.272 222.288 412.273 222.193 412.302 222.104C412.33 222.015 412.385 221.937 412.458 221.88L414.828 220.167H411.908C411.813 220.168 411.721 220.138 411.644 220.082C411.567 220.026 411.511 219.947 411.482 219.857L410.595 217.088L409.707 219.857C409.679 219.947 409.622 220.026 409.546 220.082C409.469 220.138 409.376 220.168 409.282 220.167H406.362L408.722 221.88C408.799 221.935 408.856 222.013 408.886 222.102C408.916 222.191 408.918 222.287 408.891 222.377L408.004 225.155L410.364 223.442C410.42 223.396 410.488 223.365 410.559 223.353Z" fill="#263238"/>
<path d="M428.112 215.651L429.434 219.724H433.72L430.25 222.244L431.573 226.317L428.112 223.797L424.642 226.317L425.964 222.244L422.503 219.724H426.781L428.112 215.651Z" fill="white"/>
<path d="M431.573 226.761C431.479 226.762 431.389 226.73 431.316 226.672L428.112 224.347L424.9 226.672C424.826 226.728 424.735 226.759 424.642 226.759C424.549 226.759 424.459 226.728 424.385 226.672C424.308 226.619 424.251 226.544 424.22 226.456C424.19 226.368 424.189 226.273 424.216 226.184L425.441 222.413L422.237 220.079C422.162 220.025 422.106 219.949 422.078 219.861C422.049 219.773 422.049 219.678 422.078 219.591C422.106 219.5 422.163 219.421 422.239 219.365C422.316 219.309 422.409 219.279 422.504 219.28H426.461L427.686 215.509C427.722 215.427 427.781 215.358 427.856 215.309C427.931 215.261 428.018 215.235 428.108 215.235C428.197 215.235 428.284 215.261 428.359 215.309C428.434 215.358 428.493 215.427 428.529 215.509L429.754 219.28H433.703C433.796 219.281 433.887 219.312 433.961 219.368C434.036 219.424 434.092 219.502 434.12 219.591C434.151 219.678 434.153 219.774 434.124 219.862C434.095 219.951 434.037 220.027 433.96 220.079L430.774 222.421L431.999 226.193C432.026 226.281 432.025 226.375 431.997 226.462C431.968 226.55 431.913 226.626 431.839 226.681C431.762 226.737 431.668 226.766 431.573 226.761ZM428.112 223.353C428.205 223.353 428.296 223.384 428.369 223.442L430.73 225.155L429.842 222.377C429.815 222.287 429.817 222.191 429.847 222.102C429.878 222.013 429.935 221.935 430.011 221.88L432.372 220.167H429.452C429.357 220.168 429.265 220.138 429.188 220.082C429.111 220.026 429.054 219.947 429.026 219.857L428.139 217.088L427.251 219.857C427.223 219.947 427.166 220.026 427.089 220.082C427.013 220.138 426.92 220.168 426.825 220.167H423.915L426.275 221.88C426.349 221.937 426.403 222.015 426.432 222.104C426.46 222.193 426.461 222.288 426.435 222.377L425.547 225.155L427.908 223.442C427.967 223.394 428.037 223.364 428.112 223.353Z" fill="#263238"/>
<path d="M374.734 93.5958C373.815 93.8189 372.86 93.858 371.925 93.7108C370.991 93.5637 370.094 93.2332 369.288 92.7384C368.481 92.2436 367.78 91.5942 367.225 90.8275C366.671 90.0609 366.273 89.1922 366.055 88.2714L361.459 69.4317C361.236 68.5126 361.197 67.5586 361.344 66.6245C361.491 65.6903 361.822 64.7945 362.317 63.9887C362.811 63.1828 363.461 62.4828 364.227 61.929C364.994 61.3752 365.862 60.9785 366.783 60.7617C367.703 60.5386 368.657 60.4995 369.592 60.6467C370.527 60.7938 371.423 61.1243 372.23 61.6191C373.036 62.114 373.737 62.7634 374.292 63.53C374.846 64.2966 375.244 65.1653 375.462 66.0861L380.059 84.9613C380.493 86.8121 380.177 88.7598 379.179 90.3781C378.181 91.9963 376.583 93.1533 374.734 93.5958Z" fill="white"/>
<path d="M373.03 94.244C371.322 94.24 369.665 93.6647 368.322 92.6097C366.98 91.5547 366.028 90.0808 365.62 88.4226L361.023 69.5385C360.546 67.5733 360.868 65.4988 361.92 63.7713C362.972 62.0438 364.667 60.805 366.632 60.3272C368.597 59.8494 370.672 60.1719 372.399 61.2237C374.127 62.2755 375.365 63.9704 375.843 65.9356L380.458 84.8197C380.934 86.7848 380.611 88.8586 379.559 90.5856C378.508 92.3126 376.814 93.5518 374.849 94.031C374.253 94.1726 373.643 94.2441 373.03 94.244ZM368.433 61.0016C367.898 61.0028 367.366 61.0653 366.845 61.188C365.108 61.6125 363.61 62.7086 362.681 64.2357C361.751 65.7628 361.464 67.5964 361.884 69.3344L366.481 88.2096C366.906 89.9465 368.002 91.444 369.529 92.374C371.056 93.3039 372.89 93.5902 374.627 93.1702C376.362 92.7439 377.857 91.6466 378.784 90.1193C379.71 88.592 379.993 86.7594 379.57 85.0238L374.974 66.1397C374.613 64.6763 373.773 63.3755 372.588 62.4444C371.403 61.5133 369.941 61.0054 368.433 61.0016Z" fill="#263238"/>
<path d="M367.431 115.693C366.808 115.865 366.154 115.893 365.518 115.776C364.882 115.659 364.281 115.4 363.76 115.017C363.239 114.634 362.812 114.139 362.51 113.567C362.208 112.995 362.04 112.363 362.017 111.717L360.118 87.9698C360.034 86.5415 360.441 85.1274 361.273 83.9631C362.104 82.7988 363.31 81.9547 364.689 81.5716C365.311 81.3979 365.965 81.3678 366.601 81.4836C367.236 81.5994 367.838 81.858 368.359 82.24C368.88 82.622 369.308 83.1173 369.61 83.6887C369.912 84.26 370.08 84.8925 370.102 85.5383L372.001 109.285C372.084 110.715 371.677 112.129 370.845 113.295C370.014 114.46 368.809 115.306 367.431 115.693Z" fill="white"/>
<path d="M366.259 116.278C365.28 116.278 364.326 115.967 363.535 115.391C362.959 114.964 362.484 114.414 362.145 113.782C361.806 113.15 361.611 112.451 361.574 111.735L359.666 87.9874C359.577 86.4544 360.015 84.937 360.908 83.6875C361.801 82.438 363.094 81.5316 364.573 81.1189C365.251 80.9393 365.96 80.9106 366.65 81.0348C367.34 81.159 367.994 81.4331 368.567 81.8377C369.143 82.2629 369.617 82.8106 369.956 83.4413C370.296 84.0719 370.491 84.7699 370.528 85.485L372.471 109.25C372.56 110.783 372.122 112.3 371.229 113.55C370.336 114.799 369.043 115.706 367.564 116.118C367.137 116.226 366.699 116.28 366.259 116.278ZM365.833 81.8732C365.48 81.8748 365.129 81.9195 364.786 82.0063C363.508 82.361 362.39 83.1427 361.619 84.2212C360.847 85.2998 360.468 86.6102 360.544 87.9342L362.452 111.681C362.484 112.269 362.644 112.842 362.92 113.361C363.196 113.881 363.581 114.334 364.05 114.69C364.519 115.017 365.055 115.238 365.619 115.336C366.184 115.435 366.763 115.408 367.315 115.258C368.592 114.898 369.708 114.114 370.48 113.035C371.251 111.955 371.631 110.645 371.557 109.321L369.649 85.5737C369.616 84.9878 369.456 84.4161 369.181 83.8982C368.905 83.3802 368.52 82.9285 368.052 82.5742C367.408 82.1127 366.634 81.8673 365.842 81.8732H365.833Z" fill="#263238"/>
<path d="M418.191 89.4162L394.231 84.4289C385.785 84.2593 377.352 85.184 369.144 87.1799L352.948 91.0845C351.242 91.4935 349.444 91.2094 347.947 90.2946C346.449 89.3797 345.376 87.9086 344.962 86.2038L341.581 72.3069C341.174 70.6021 341.458 68.8057 342.371 67.3094C343.283 65.8132 344.751 64.7386 346.453 64.3202L359.498 61.1522C369.384 58.7404 378.833 54.8002 387.504 49.4739L404.542 33.323L418.191 89.4162Z" fill="white"/>
<path d="M351.404 91.7323C349.817 91.7306 348.277 91.1974 347.029 90.2178C345.781 89.2382 344.897 87.8687 344.518 86.328L341.137 72.4489C340.698 70.624 340.999 68.6995 341.976 67.0964C342.952 65.4932 344.523 64.3419 346.346 63.8942L359.391 60.7173C369.216 58.3268 378.606 54.4133 387.22 49.1188L404.232 33.0035C404.286 32.9479 404.354 32.9085 404.43 32.8897C404.505 32.8708 404.584 32.8734 404.658 32.897C404.731 32.9195 404.798 32.9607 404.851 33.0168C404.904 33.0728 404.941 33.1416 404.959 33.2165L418.617 89.3097C418.635 89.3832 418.633 89.4602 418.613 89.5332C418.593 89.6062 418.554 89.6728 418.501 89.7267C418.45 89.7808 418.385 89.8206 418.313 89.8424C418.242 89.8641 418.166 89.8671 418.093 89.851L394.097 84.8726C385.714 84.7088 377.344 85.6305 369.197 87.6147L353.073 91.5459C352.526 91.6729 351.966 91.7355 351.404 91.7323ZM404.285 34.1482L387.797 49.7755C387.779 49.8004 387.755 49.8191 387.726 49.8288C379.021 55.189 369.529 59.1479 359.595 61.5603L346.55 64.7373C344.957 65.1303 343.584 66.1375 342.731 67.5391C341.878 68.9406 341.615 70.6227 341.998 72.2181L345.379 86.115C345.772 87.7098 346.78 89.0842 348.184 89.9373C349.587 90.7905 351.272 91.053 352.868 90.6674L368.993 86.745C377.239 84.7379 385.71 83.8102 394.195 83.9852L417.596 88.8393L404.285 34.1482Z" fill="#263238"/>
<path d="M368.522 58.4458C365.558 59.4752 362.55 60.3892 359.489 61.108L346.444 64.2761C344.742 64.6945 343.274 65.769 342.362 67.2653C341.449 68.7615 341.165 70.558 341.572 72.2628L344.962 86.2217C345.376 87.9266 346.449 89.3976 347.946 90.3125C349.443 91.2274 351.242 91.5115 352.948 91.1025L369.099 87.1801C371.122 86.6832 373.158 86.2543 375.205 85.8934L368.522 58.4458Z" fill="#263238"/>
<path d="M351.404 91.7322C349.817 91.7305 348.277 91.1973 347.029 90.2177C345.781 89.2382 344.897 87.8687 344.518 86.3279L341.137 72.4488C340.698 70.6239 340.999 68.6994 341.976 67.0963C342.952 65.4932 344.523 64.3419 346.346 63.8942L359.391 60.7173C362.293 60.0073 365.31 59.111 368.371 58.055C368.428 58.0287 368.491 58.0151 368.553 58.0151C368.616 58.0151 368.678 58.0287 368.735 58.055C368.843 58.1172 368.923 58.2191 368.957 58.339L375.63 85.76C375.646 85.8182 375.649 85.879 375.64 85.9386C375.631 85.9982 375.61 86.0552 375.577 86.1061C375.506 86.2041 375.402 86.2734 375.284 86.3013C373.234 86.6651 371.185 87.0911 369.197 87.5703L353.073 91.5015C352.527 91.6434 351.967 91.7209 351.404 91.7322ZM368.203 59.0223C365.274 60.0339 362.381 60.8859 359.595 61.5603L346.55 64.7372C344.957 65.1302 343.584 66.1374 342.731 67.539C341.878 68.9406 341.615 70.6227 341.998 72.2181L345.379 86.1149C345.772 87.7098 346.78 89.0841 348.184 89.9373C349.587 90.7904 351.272 91.0529 352.868 90.6673L368.993 86.745C370.847 86.2924 372.746 85.8576 374.663 85.547L368.203 59.0223Z" fill="#263238"/>
<path d="M405.928 27.9468L402.737 28.7234C400.485 29.2716 399.103 31.542 399.652 33.7944L414.24 93.7284C414.788 95.9809 417.058 97.3624 419.311 96.8141L422.501 96.0376C424.754 95.4894 426.135 93.219 425.587 90.9665L410.999 31.0325C410.45 28.7801 408.18 27.3986 405.928 27.9468Z" fill="#407BFF"/>
<path d="M418.315 97.3941C417.275 97.3919 416.266 97.041 415.448 96.3975C414.631 95.754 414.053 94.8551 413.807 93.8445L399.218 33.9088C399.073 33.3156 399.046 32.6994 399.14 32.0959C399.233 31.4923 399.446 30.9132 399.764 30.392C400.082 29.8707 400.501 29.4176 400.995 29.0586C401.489 28.6996 402.049 28.442 402.643 28.3004L405.838 27.5283C407.034 27.2391 408.295 27.4353 409.346 28.074C410.397 28.7127 411.152 29.7417 411.447 30.936L426.036 90.8717C426.324 92.0683 426.127 93.3307 425.487 94.3821C424.846 95.4334 423.815 96.1879 422.619 96.4801L419.433 97.261C419.067 97.3498 418.692 97.3945 418.315 97.3941ZM406.921 28.2826C406.622 28.283 406.324 28.3187 406.033 28.3891L402.839 29.1612C402.359 29.2766 401.907 29.4857 401.509 29.7764C401.11 30.0671 400.773 30.4336 400.516 30.855C400.26 31.2764 400.089 31.7442 400.014 32.2318C399.939 32.7193 399.961 33.2168 400.079 33.6958L414.668 93.6404C414.905 94.6064 415.516 95.4391 416.366 95.9563C417.215 96.4735 418.235 96.6331 419.203 96.4002L422.397 95.6193C423.363 95.3818 424.196 94.7714 424.713 93.9216C425.23 93.0718 425.39 92.0518 425.157 91.0846L410.568 31.149C410.368 30.3324 409.9 29.6064 409.239 29.0869C408.578 28.5673 407.762 28.2842 406.921 28.2826Z" fill="#263238"/>
<path d="M424.713 47.8142C424.543 47.8137 424.377 47.7644 424.234 47.6722C424.134 47.6113 424.047 47.5312 423.978 47.4366C423.91 47.3419 423.86 47.2346 423.833 47.1208C423.806 47.007 423.801 46.8889 423.82 46.7733C423.838 46.6578 423.88 46.5471 423.941 46.4475L429.576 37.5734C429.639 37.475 429.72 37.3897 429.815 37.3226C429.91 37.2555 430.018 37.2078 430.132 37.1822C430.245 37.1567 430.363 37.1538 430.478 37.1737C430.593 37.1936 430.703 37.236 430.801 37.2983C430.9 37.3607 430.985 37.4418 431.052 37.5371C431.119 37.6324 431.167 37.74 431.192 37.8537C431.218 37.9674 431.221 38.085 431.201 38.1999C431.181 38.3147 431.138 38.4245 431.076 38.523L425.441 47.3971C425.364 47.5212 425.257 47.6242 425.13 47.697C425.003 47.7698 424.86 47.81 424.713 47.8142Z" fill="#263238"/>
<path d="M439.409 76.1942C439.252 76.1926 439.099 76.1497 438.965 76.0699L429.878 70.7455C429.7 70.6163 429.577 70.4257 429.532 70.2108C429.486 69.9958 429.522 69.7717 429.633 69.5818C429.743 69.3918 429.92 69.2496 430.129 69.1826C430.338 69.1157 430.565 69.1287 430.765 69.2191L439.852 74.5436C440.024 74.6408 440.158 74.7925 440.234 74.9746C440.31 75.1567 440.323 75.3589 440.271 75.5493C440.219 75.7396 440.105 75.9072 439.948 76.0256C439.79 76.144 439.597 76.2064 439.4 76.2031L439.409 76.1942Z" fill="#263238"/>
<path d="M429.496 59.4485C429.294 59.4544 429.095 59.3907 428.933 59.2679C428.772 59.1452 428.657 58.9709 428.609 58.774C428.581 58.6604 428.576 58.5424 428.594 58.4268C428.612 58.3112 428.653 58.2004 428.714 58.1006C428.775 58.0008 428.855 57.9141 428.95 57.8454C429.044 57.7766 429.152 57.7273 429.265 57.7003L440.296 55.038C440.41 55.0101 440.528 55.0048 440.643 55.0224C440.759 55.04 440.87 55.0803 440.97 55.1409C441.07 55.2014 441.158 55.2811 441.227 55.3754C441.296 55.4697 441.346 55.5767 441.374 55.6903C441.402 55.8039 441.407 55.9219 441.39 56.0376C441.372 56.1533 441.332 56.2643 441.271 56.3645C441.211 56.4646 441.131 56.5518 441.037 56.6211C440.943 56.6904 440.836 56.7405 440.722 56.7685L429.683 59.4307L429.496 59.4485Z" fill="#263238"/>
<path d="M371.876 106.535L375.746 109.836C376.189 110.232 376.499 110.756 376.633 111.336C376.722 111.7 376.738 112.079 376.68 112.45C376.622 112.821 376.492 113.177 376.297 113.497C376.101 113.818 375.845 114.097 375.542 114.318C375.238 114.54 374.895 114.699 374.53 114.788L362.328 117.76L361.565 106.615L371.876 106.535Z" fill="#263238"/>
<path d="M362.364 118.204C362.271 118.202 362.181 118.171 362.107 118.115C362.055 118.076 362.012 118.027 361.98 117.97C361.948 117.914 361.927 117.852 361.92 117.787L361.157 106.641C361.153 106.581 361.162 106.52 361.183 106.463C361.204 106.407 361.238 106.355 361.281 106.313C361.32 106.267 361.369 106.23 361.425 106.205C361.48 106.181 361.54 106.169 361.601 106.171L371.877 106.091C371.984 106.09 372.088 106.128 372.17 106.198L376.03 109.499C376.571 109.957 376.945 110.581 377.095 111.274C377.301 112.125 377.161 113.024 376.705 113.773C376.249 114.522 375.515 115.059 374.663 115.267L362.47 118.231L362.364 118.204ZM362.08 107.058L362.772 117.21L374.459 114.362C374.893 114.259 375.289 114.038 375.604 113.723C375.92 113.408 376.141 113.012 376.244 112.578C376.347 112.145 376.328 111.691 376.188 111.268C376.049 110.845 375.794 110.469 375.453 110.182L371.717 106.987L362.08 107.058Z" fill="#263238"/>
<path d="M352.176 73.0704C352.098 72.746 351.926 72.4519 351.681 72.2255C351.436 71.9991 351.129 71.8505 350.799 71.7985C350.47 71.7464 350.132 71.7933 349.829 71.9333C349.526 72.0732 349.272 72.2998 349.098 72.5844C348.924 72.8691 348.838 73.199 348.852 73.5323C348.865 73.8657 348.977 74.1875 349.174 74.4571C349.37 74.7267 349.643 74.932 349.956 75.0469C350.269 75.1618 350.609 75.1811 350.934 75.1026C351.366 74.9953 351.739 74.7218 351.972 74.3415C352.204 73.9611 352.278 73.5044 352.176 73.0704Z" fill="#407BFF"/>
<path d="M53.1369 109.463H95.0138C96.24 109.463 97.416 109.95 98.283 110.817C99.1501 111.684 99.6372 112.86 99.6372 114.086V140.469C99.6372 141.696 99.1504 142.873 98.2836 143.741C97.4168 144.61 96.2408 145.099 95.0138 145.101H81.4009L84.143 157.64L72.3316 145.101H53.1369C51.9084 145.101 50.7301 144.613 49.8614 143.744C48.9927 142.876 48.5046 141.697 48.5046 140.469V114.086C48.507 112.859 48.9961 111.683 49.8645 110.816C50.733 109.949 51.9099 109.463 53.1369 109.463Z" fill="white"/>
<path d="M84.1431 158.075C84.0815 158.076 84.0203 158.064 83.9637 158.039C83.9071 158.015 83.8563 157.979 83.8148 157.933L72.1365 145.509H53.137C51.7915 145.507 50.5018 144.971 49.5503 144.02C48.5989 143.069 48.0634 141.779 48.061 140.433V114.086C48.0634 112.741 48.5992 111.453 49.5509 110.503C50.5026 109.553 51.7923 109.019 53.137 109.019H95.0139C96.3578 109.019 97.6466 109.553 98.5969 110.503C99.5472 111.453 100.081 112.742 100.081 114.086V140.469C100.081 141.814 99.5474 143.103 98.5974 144.055C97.6474 145.007 96.3586 145.542 95.0139 145.545H81.9778L84.5691 157.534C84.592 157.628 84.5825 157.728 84.5423 157.816C84.5021 157.905 84.4334 157.977 84.3472 158.022C84.285 158.057 84.2146 158.076 84.1431 158.075ZM53.137 109.906C52.0277 109.906 50.9636 110.347 50.1784 111.13C49.3931 111.914 48.9508 112.977 48.9484 114.086V140.469C48.9508 141.579 49.3928 142.643 50.1778 143.428C50.9628 144.213 52.0269 144.655 53.137 144.657H72.3317C72.3922 144.655 72.4524 144.667 72.5078 144.692C72.5631 144.716 72.6122 144.753 72.6512 144.799L83.3711 156.167L80.9928 145.216C80.9768 145.152 80.9764 145.084 80.9919 145.019C81.0073 144.954 81.0381 144.894 81.0816 144.844C81.1238 144.793 81.1767 144.752 81.2366 144.725C81.2965 144.697 81.3617 144.683 81.4277 144.684H95.0139C96.1232 144.682 97.1863 144.239 97.9699 143.454C98.7535 142.669 99.1936 141.605 99.1936 140.495V114.086C99.1936 112.978 98.7532 111.915 97.9694 111.131C97.1855 110.347 96.1224 109.906 95.0139 109.906H53.137Z" fill="#263238"/>
<path d="M65.3389 126.918C65.3389 127.362 65.2073 127.796 64.9606 128.166C64.7139 128.535 64.3632 128.823 63.953 128.992C63.5427 129.162 63.0913 129.207 62.6558 129.12C62.2203 129.034 61.8202 128.82 61.5062 128.506C61.1922 128.192 60.9784 127.792 60.8918 127.356C60.8051 126.921 60.8496 126.469 61.0195 126.059C61.1895 125.649 61.4772 125.298 61.8464 125.051C62.2157 124.805 62.6497 124.673 63.0938 124.673C63.6892 124.673 64.2603 124.91 64.6813 125.331C65.1024 125.752 65.3389 126.323 65.3389 126.918Z" fill="#263238"/>
<path d="M76.3162 126.918C76.3162 127.362 76.1845 127.796 75.9378 128.166C75.6911 128.535 75.3405 128.823 74.9303 128.992C74.52 129.162 74.0686 129.207 73.6331 129.12C73.1976 129.034 72.7975 128.82 72.4835 128.506C72.1695 128.192 71.9557 127.792 71.8691 127.356C71.7824 126.921 71.8269 126.469 71.9968 126.059C72.1668 125.649 72.4545 125.298 72.8237 125.051C73.1929 124.805 73.627 124.673 74.0711 124.673C74.6665 124.673 75.2376 124.91 75.6586 125.331C76.0797 125.752 76.3162 126.323 76.3162 126.918Z" fill="#263238"/>
<path d="M87.2933 126.918C87.2933 127.362 87.1616 127.796 86.9149 128.166C86.6682 128.535 86.3176 128.823 85.9073 128.992C85.4971 129.162 85.0456 129.207 84.6101 129.12C84.1746 129.034 83.7746 128.82 83.4606 128.506C83.1466 128.192 82.9328 127.792 82.8461 127.356C82.7595 126.921 82.8039 126.469 82.9739 126.059C83.1438 125.649 83.4316 125.298 83.8008 125.051C84.17 124.805 84.6041 124.673 85.0481 124.673C85.343 124.673 85.6349 124.731 85.9073 124.844C86.1797 124.957 86.4272 125.122 86.6357 125.331C86.8442 125.539 87.0095 125.787 87.1224 126.059C87.2352 126.331 87.2933 126.623 87.2933 126.918Z" fill="#263238"/>
<path d="M134.593 124.141H97.0728C95.9753 124.143 94.9234 124.581 94.1482 125.358C93.3729 126.135 92.9375 127.187 92.9375 128.285V151.917C92.9375 153.017 93.3738 154.072 94.1508 154.85C94.9277 155.629 95.9818 156.067 97.0817 156.07H97.8892L95.4577 167.295L106.036 156.07H134.601C135.701 156.067 136.755 155.629 137.532 154.85C138.309 154.072 138.746 153.017 138.746 151.917V128.285C138.746 127.74 138.638 127.2 138.429 126.697C138.22 126.193 137.914 125.736 137.529 125.351C137.143 124.966 136.685 124.661 136.181 124.454C135.677 124.246 135.138 124.139 134.593 124.141Z" fill="#407BFF"/>
<path d="M95.4486 167.739C95.377 167.739 95.3067 167.721 95.2445 167.686C95.1577 167.641 95.088 167.569 95.0463 167.481C95.0046 167.393 94.9932 167.293 95.0137 167.198L97.3299 156.549H97.0725C95.8549 156.546 94.688 156.061 93.8278 155.199C92.9677 154.337 92.4846 153.17 92.4846 151.952V128.285C92.487 127.069 92.9711 125.903 93.831 125.043C94.6909 124.183 95.8565 123.699 97.0725 123.697H134.592C135.808 123.699 136.974 124.183 137.834 125.043C138.694 125.903 139.178 127.069 139.18 128.285V151.916C139.18 153.134 138.697 154.302 137.837 155.164C136.977 156.026 135.81 156.511 134.592 156.513H106.248L95.768 167.597C95.7272 167.641 95.6778 167.676 95.6229 167.701C95.568 167.725 95.5087 167.738 95.4486 167.739ZM97.0725 124.584C96.0911 124.584 95.1499 124.974 94.4559 125.668C93.7619 126.362 93.372 127.303 93.372 128.285V151.916C93.372 152.899 93.7616 153.841 94.4553 154.536C95.1491 155.232 96.0903 155.623 97.0725 155.626H97.8801C97.946 155.625 98.0113 155.639 98.0711 155.667C98.131 155.694 98.184 155.735 98.2262 155.786C98.2663 155.838 98.2949 155.898 98.3102 155.962C98.3255 156.027 98.3271 156.093 98.3149 156.158L96.2206 165.831L105.707 155.759C105.748 155.716 105.798 155.681 105.853 155.658C105.908 155.636 105.967 155.624 106.026 155.626H134.592C135.574 155.623 136.516 155.232 137.209 154.536C137.903 153.841 138.293 152.899 138.293 151.916V128.285C138.293 127.303 137.903 126.362 137.209 125.668C136.515 124.974 135.574 124.584 134.592 124.584H97.0725Z" fill="#263238"/>
<path d="M108.165 139.138C108.165 139.582 108.034 140.016 107.787 140.385C107.54 140.754 107.19 141.042 106.779 141.212C106.369 141.382 105.918 141.426 105.482 141.34C105.047 141.253 104.647 141.039 104.333 140.725C104.019 140.411 103.805 140.011 103.718 139.576C103.632 139.14 103.676 138.689 103.846 138.279C104.016 137.868 104.304 137.518 104.673 137.271C105.042 137.024 105.476 136.893 105.92 136.893C106.516 136.893 107.087 137.129 107.508 137.55C107.929 137.971 108.165 138.542 108.165 139.138Z" fill="#263238"/>
<path d="M119.134 139.138C119.134 139.582 119.002 140.016 118.755 140.385C118.509 140.754 118.158 141.042 117.748 141.212C117.337 141.382 116.886 141.426 116.45 141.34C116.015 141.253 115.615 141.039 115.301 140.725C114.987 140.411 114.773 140.011 114.686 139.576C114.6 139.14 114.644 138.689 114.814 138.279C114.984 137.868 115.272 137.518 115.641 137.271C116.01 137.024 116.444 136.893 116.888 136.893C117.484 136.893 118.055 137.129 118.476 137.55C118.897 137.971 119.134 138.542 119.134 139.138Z" fill="#263238"/>
<path d="M130.111 139.138C130.111 139.582 129.979 140.016 129.733 140.385C129.486 140.754 129.135 141.042 128.725 141.212C128.315 141.382 127.864 141.426 127.428 141.34C126.992 141.253 126.592 141.039 126.278 140.725C125.964 140.411 125.751 140.011 125.664 139.576C125.577 139.14 125.622 138.689 125.792 138.279C125.962 137.868 126.249 137.518 126.619 137.271C126.988 137.024 127.422 136.893 127.866 136.893C128.461 136.893 129.033 137.129 129.454 137.55C129.875 137.971 130.111 138.542 130.111 139.138Z" fill="#263238"/>
<path d="M59.5263 66.0422H50.386V93.3123H59.5263V66.0422Z" fill="#263238"/>
<path d="M59.5262 93.5344H50.3859C50.3271 93.5344 50.2706 93.511 50.229 93.4694C50.1874 93.4278 50.1641 93.3714 50.1641 93.3125V66.0424C50.1641 65.9836 50.1874 65.9271 50.229 65.8855C50.2706 65.8439 50.3271 65.8206 50.3859 65.8206H59.5262C59.5851 65.8206 59.6415 65.8439 59.6831 65.8855C59.7247 65.9271 59.7481 65.9836 59.7481 66.0424V93.3125C59.7481 93.3714 59.7247 93.4278 59.6831 93.4694C59.6415 93.511 59.5851 93.5344 59.5262 93.5344ZM50.6078 93.0907H59.3044V66.2376H50.6078V93.0907Z" fill="#263238"/>
<path d="M73.8845 75.8479H64.7441V93.3121H73.8845V75.8479Z" fill="#407BFF"/>
<path d="M73.8937 93.7468H64.7445C64.6268 93.7468 64.5139 93.7001 64.4307 93.6169C64.3475 93.5336 64.3008 93.4208 64.3008 93.3031V75.8478C64.3031 75.7308 64.3505 75.6192 64.4333 75.5365C64.516 75.4538 64.6275 75.4063 64.7445 75.4041H73.8937C74.0107 75.4063 74.1222 75.4538 74.2049 75.5365C74.2876 75.6192 74.3351 75.7308 74.3374 75.8478V93.312C74.3351 93.4281 74.2873 93.5387 74.2043 93.62C74.1214 93.7013 74.0098 93.7468 73.8937 93.7468ZM65.1882 92.8594H73.4145V76.2915H65.1882V92.8594Z" fill="#263238"/>
<path d="M88.2519 60.0698H79.1116V93.3122H88.2519V60.0698Z" fill="#263238"/>
<path d="M88.2607 93.534H79.1115C79.0527 93.534 78.9962 93.5106 78.9546 93.469C78.913 93.4274 78.8896 93.371 78.8896 93.3121V60.0698C78.8896 60.0109 78.913 59.9545 78.9546 59.9129C78.9962 59.8713 79.0527 59.8479 79.1115 59.8479H88.2607C88.3195 59.8479 88.376 59.8713 88.4176 59.9129C88.4592 59.9545 88.4826 60.0109 88.4826 60.0698V93.3121C88.4826 93.371 88.4592 93.4274 88.4176 93.469C88.376 93.5106 88.3195 93.534 88.2607 93.534ZM79.3334 93.0903H88.0389V60.2561H79.3334V93.0903Z" fill="#263238"/>
<path d="M102.619 66.9473H93.4785V93.3122H102.619V66.9473Z" fill="#407BFF"/>
<path d="M102.619 93.7469H93.4786C93.3609 93.7469 93.2481 93.7002 93.1649 93.6169C93.0817 93.5337 93.0349 93.4209 93.0349 93.3032V66.9471C93.0349 66.8294 93.0817 66.7166 93.1649 66.6334C93.2481 66.5502 93.3609 66.5034 93.4786 66.5034H102.619C102.737 66.5034 102.849 66.5502 102.933 66.6334C103.016 66.7166 103.063 66.8294 103.063 66.9471V93.3121C103.06 93.4282 103.013 93.5388 102.93 93.6201C102.847 93.7014 102.735 93.7469 102.619 93.7469ZM93.9223 92.8595H102.175V67.3908H93.9223V92.8595Z" fill="#263238"/>
<path d="M116.986 60.9219H107.846V93.3123H116.986V60.9219Z" fill="#263238"/>
<path d="M116.986 93.5342H107.846C107.787 93.5342 107.731 93.5108 107.689 93.4692C107.647 93.4276 107.624 93.3712 107.624 93.3124V60.913C107.624 60.8542 107.647 60.7977 107.689 60.7561C107.731 60.7145 107.787 60.6912 107.846 60.6912H116.986C117.045 60.6912 117.101 60.7145 117.143 60.7561C117.185 60.7977 117.208 60.8542 117.208 60.913V93.3035C117.209 93.3333 117.204 93.3632 117.194 93.3911C117.183 93.4191 117.167 93.4446 117.146 93.4661C117.126 93.4877 117.101 93.5048 117.073 93.5165C117.046 93.5282 117.016 93.5342 116.986 93.5342ZM108.112 93.0905H116.809V61.1437H108.112V93.0905Z" fill="#263238"/>
<path d="M131.353 41.7271H122.213V93.3122H131.353V41.7271Z" fill="#407BFF"/>
<path d="M131.353 93.7469H122.222C122.104 93.7469 121.991 93.7001 121.908 93.6169C121.825 93.5337 121.778 93.4209 121.778 93.3032V41.7269C121.778 41.6092 121.825 41.4964 121.908 41.4132C121.991 41.33 122.104 41.2832 122.222 41.2832H131.362C131.48 41.2832 131.593 41.33 131.676 41.4132C131.759 41.4964 131.806 41.6092 131.806 41.7269V93.3121C131.805 93.3703 131.792 93.4278 131.769 93.4812C131.745 93.5346 131.712 93.5829 131.67 93.6232C131.628 93.6636 131.578 93.6953 131.524 93.7165C131.469 93.7378 131.411 93.7481 131.353 93.7469ZM122.657 92.8595H130.91V42.1706H122.657V92.8595Z" fill="#263238"/>
<path d="M146.972 41.39H141.647C141.588 41.39 141.532 41.3666 141.49 41.325C141.449 41.2834 141.425 41.227 141.425 41.1681C141.425 41.1093 141.449 41.0529 141.49 41.0113C141.532 40.9697 141.588 40.9463 141.647 40.9463H146.972C147.03 40.9463 147.087 40.9697 147.128 41.0113C147.17 41.0529 147.193 41.1093 147.193 41.1681C147.193 41.227 147.17 41.2834 147.128 41.325C147.087 41.3666 147.03 41.39 146.972 41.39Z" fill="#263238"/>
<path d="M146.972 51.8258H141.647C141.588 51.8258 141.532 51.8024 141.49 51.7608C141.449 51.7192 141.425 51.6628 141.425 51.6039C141.425 51.5451 141.449 51.4887 141.49 51.4471C141.532 51.4055 141.588 51.3821 141.647 51.3821H146.972C147.03 51.3821 147.087 51.4055 147.128 51.4471C147.17 51.4887 147.193 51.5451 147.193 51.6039C147.193 51.6628 147.17 51.7192 147.128 51.7608C147.087 51.8024 147.03 51.8258 146.972 51.8258Z" fill="#263238"/>
<path d="M146.972 62.2616H141.647C141.588 62.2616 141.532 62.2382 141.49 62.1966C141.449 62.155 141.425 62.0986 141.425 62.0397C141.425 61.9809 141.449 61.9245 141.49 61.8829C141.532 61.8412 141.588 61.8179 141.647 61.8179H146.972C147.03 61.8179 147.087 61.8412 147.128 61.8829C147.17 61.9245 147.193 61.9809 147.193 62.0397C147.193 62.0986 147.17 62.155 147.128 62.1966C147.087 62.2382 147.03 62.2616 146.972 62.2616Z" fill="#263238"/>
<path d="M146.972 72.6888H141.647C141.588 72.6888 141.532 72.6655 141.49 72.6238C141.449 72.5822 141.425 72.5258 141.425 72.467C141.425 72.4081 141.449 72.3517 141.49 72.3101C141.532 72.2685 141.588 72.2451 141.647 72.2451H146.972C147.03 72.2451 147.087 72.2685 147.128 72.3101C147.17 72.3517 147.193 72.4081 147.193 72.467C147.193 72.5258 147.17 72.5822 147.128 72.6238C147.087 72.6655 147.03 72.6888 146.972 72.6888Z" fill="#263238"/>
<path d="M146.972 83.0982H141.647C141.588 83.0982 141.532 83.0749 141.49 83.0333C141.449 82.9917 141.425 82.9352 141.425 82.8764C141.425 82.8176 141.449 82.7611 141.49 82.7195C141.532 82.6779 141.588 82.6545 141.647 82.6545H146.972C147.03 82.6545 147.087 82.6779 147.128 82.7195C147.17 82.7611 147.193 82.8176 147.193 82.8764C147.193 82.9352 147.17 82.9917 147.128 83.0333C147.087 83.0749 147.03 83.0982 146.972 83.0982Z" fill="#263238"/>
<path d="M146.972 93.5431H141.647C141.588 93.5431 141.532 93.5197 141.49 93.4781C141.449 93.4365 141.425 93.3801 141.425 93.3212C141.425 93.2624 141.449 93.206 141.49 93.1643C141.532 93.1227 141.588 93.0994 141.647 93.0994H146.972C147.03 93.0994 147.087 93.1227 147.128 93.1643C147.17 93.206 147.193 93.2624 147.193 93.3212C147.193 93.3801 147.17 93.4365 147.128 93.4781C147.087 93.5197 147.03 93.5431 146.972 93.5431Z" fill="#263238"/>
<path d="M69.6164 64.9062C69.5345 64.9034 69.4549 64.8789 69.3857 64.8352L55.3823 56.3605C55.3316 56.3302 55.2874 56.2902 55.2522 56.2428C55.2169 56.1954 55.1914 56.1415 55.1769 56.0842C55.1625 56.027 55.1595 55.9674 55.1681 55.909C55.1767 55.8506 55.1967 55.7944 55.227 55.7437C55.2573 55.693 55.2973 55.6488 55.3447 55.6135C55.3921 55.5783 55.446 55.5527 55.5032 55.5383C55.5605 55.5239 55.6201 55.5209 55.6785 55.5295C55.7369 55.5381 55.7931 55.5581 55.8438 55.5884L69.5365 63.8768L83.8593 48.5512C83.9059 48.5024 83.9626 48.4644 84.0255 48.4399C84.0883 48.4153 84.1558 48.4049 84.2232 48.4093L98.5105 49.6161L112.239 44.1674L127.937 23.5085C128.008 23.4144 128.113 23.3522 128.229 23.3355C128.346 23.3189 128.464 23.3492 128.558 23.4198C128.652 23.4904 128.715 23.5955 128.731 23.712C128.748 23.8285 128.718 23.9468 128.647 24.041L112.869 44.7975C112.822 44.8639 112.757 44.9161 112.682 44.9484L98.7412 50.4769C98.6737 50.4889 98.6046 50.4889 98.5371 50.4769L84.3385 49.2789L69.9447 64.7642C69.9022 64.8086 69.8513 64.844 69.7949 64.8683C69.7385 64.8927 69.6778 64.9056 69.6164 64.9062Z" fill="#263238"/>
<path d="M57.3787 55.988C57.3787 55.6369 57.2746 55.2938 57.0796 55.0019C56.8846 54.7101 56.6074 54.4826 56.2831 54.3482C55.9588 54.2139 55.602 54.1788 55.2577 54.2472C54.9134 54.3157 54.5971 54.4848 54.3489 54.733C54.1007 54.9812 53.9317 55.2974 53.8632 55.6417C53.7947 55.986 53.8299 56.3428 53.9642 56.6671C54.0985 56.9915 54.326 57.2686 54.6179 57.4637C54.9098 57.6587 55.2529 57.7628 55.6039 57.7628C56.0746 57.7628 56.5261 57.5758 56.8589 57.2429C57.1918 56.9101 57.3787 56.4587 57.3787 55.988Z" fill="#263238"/>
<path d="M71.3822 64.4626C71.3822 64.1115 71.2781 63.7684 71.0831 63.4765C70.888 63.1847 70.6108 62.9572 70.2865 62.8228C69.9622 62.6885 69.6054 62.6534 69.2611 62.7218C68.9168 62.7903 68.6006 62.9594 68.3524 63.2076C68.1041 63.4558 67.9351 63.772 67.8666 64.1163C67.7981 64.4606 67.8333 64.8175 67.9676 65.1418C68.102 65.4661 68.3294 65.7433 68.6213 65.9383C68.9132 66.1333 69.2563 66.2374 69.6073 66.2374C70.0781 66.2374 70.5295 66.0504 70.8623 65.7176C71.1952 65.3847 71.3822 64.9333 71.3822 64.4626Z" fill="#263238"/>
<path d="M85.9444 48.8532C85.9444 48.5022 85.8403 48.159 85.6453 47.8672C85.4503 47.5753 85.1731 47.3478 84.8488 47.2135C84.5245 47.0791 84.1676 47.044 83.8233 47.1125C83.4791 47.181 83.1628 47.35 82.9146 47.5982C82.6664 47.8464 82.4974 48.1627 82.4289 48.5069C82.3604 48.8512 82.3955 49.2081 82.5299 49.5324C82.6642 49.8567 82.8917 50.1339 83.1836 50.3289C83.4754 50.5239 83.8186 50.628 84.1696 50.628C84.6403 50.628 85.0917 50.441 85.4246 50.1082C85.7574 49.7753 85.9444 49.3239 85.9444 48.8532Z" fill="#263238"/>
<path d="M100.338 50.0688C100.338 49.7177 100.234 49.3746 100.039 49.0827C99.8441 48.7909 99.5669 48.5634 99.2426 48.429C98.9183 48.2947 98.5614 48.2596 98.2171 48.328C97.8729 48.3965 97.5566 48.5656 97.3084 48.8138C97.0602 49.062 96.8912 49.3782 96.8227 49.7225C96.7542 50.0668 96.7893 50.4237 96.9237 50.748C97.058 51.0723 97.2855 51.3495 97.5774 51.5445C97.8692 51.7395 98.2124 51.8436 98.5634 51.8436C99.0341 51.8436 99.4855 51.6566 99.8184 51.3238C100.151 50.9909 100.338 50.5395 100.338 50.0688Z" fill="#263238"/>
<path d="M114.28 44.2563C114.28 43.9052 114.176 43.5621 113.981 43.2702C113.785 42.9784 113.508 42.7509 113.184 42.6165C112.86 42.4822 112.503 42.4471 112.159 42.5155C111.814 42.584 111.498 42.7531 111.25 43.0013C111.002 43.2495 110.833 43.5657 110.764 43.91C110.696 44.2543 110.731 44.6112 110.865 44.9355C110.999 45.2598 111.227 45.537 111.519 45.732C111.811 45.927 112.154 46.0311 112.505 46.0311C112.976 46.0311 113.427 45.8441 113.76 45.5113C114.093 45.1784 114.28 44.727 114.28 44.2563Z" fill="#263238"/>
<path d="M130.058 23.7748C130.058 23.4238 129.954 23.0807 129.759 22.7888C129.564 22.4969 129.286 22.2694 128.962 22.1351C128.638 22.0008 128.281 21.9656 127.937 22.0341C127.592 22.1026 127.276 22.2716 127.028 22.5198C126.78 22.768 126.611 23.0843 126.542 23.4286C126.474 23.7729 126.509 24.1297 126.643 24.454C126.777 24.7783 127.005 25.0555 127.297 25.2505C127.589 25.4455 127.932 25.5496 128.283 25.5496C128.754 25.5496 129.205 25.3627 129.538 25.0298C129.871 24.697 130.058 24.2455 130.058 23.7748Z" fill="#263238"/>
</g>
<defs>
<linearGradient id="paint0_linear_370_2004" x1="391.719" y1="191.194" x2="123.95" y2="42.7521" gradientUnits="userSpaceOnUse">
<stop stop-color="#ED893E"/>
<stop offset="1" stop-color="#00ABAD"/>
</linearGradient>
<linearGradient id="paint1_linear_370_2004" x1="156.882" y1="256.941" x2="-107.471" y2="-39.5294" gradientUnits="userSpaceOnUse">
<stop stop-color="#00ABAD"/>
<stop offset="1" stop-color="#ED893E"/>
</linearGradient>
<clipPath id="clip0_370_2004">
<rect width="441" height="384" fill="white"/>
</clipPath>
</defs>
</svg>
