<svg width="435" height="329" viewBox="0 0 435 329" fill="none" xmlns="http://www.w3.org/2000/svg">
<g clip-path="url(#clip0_375_2630)">
<rect y="14" width="200" height="315" rx="20" fill="#D9D9D9"/>
<rect y="14" width="200" height="315" rx="20" fill="url(#paint0_linear_375_2630)"/>
<circle cx="91" cy="91" r="91" transform="matrix(-1 0 0 1 432 79)" fill="url(#paint1_linear_375_2630)"/>
<path d="M41.0616 58.2695H29.1106V111.231H41.0616V58.2695Z" fill="#C9C9C9" stroke="#263238" stroke-linecap="round" stroke-linejoin="round"/>
<path d="M41.0616 66.2368H29.1106V71.4077H41.0616V66.2368Z" fill="white" stroke="#263238" stroke-linecap="round" stroke-linejoin="round"/>
<path d="M41.0616 99.0957H29.1106V104.267H41.0616V99.0957Z" fill="white" stroke="#263238" stroke-linecap="round" stroke-linejoin="round"/>
<path d="M55.0044 58.2695H38.2783V111.231H55.0044V58.2695Z" fill="#878787" stroke="#263238" stroke-linecap="round" stroke-linejoin="round"/>
<path d="M53.8172 58.2695H41.8662V111.231H53.8172V58.2695Z" fill="#C9C9C9" stroke="#263238" stroke-linecap="round" stroke-linejoin="round"/>
<path d="M53.8172 66.2368H41.8662V71.4077H53.8172V66.2368Z" fill="white" stroke="#263238" stroke-linecap="round" stroke-linejoin="round"/>
<path d="M53.8172 99.0957H41.8662V104.267H53.8172V99.0957Z" fill="white" stroke="#263238" stroke-linecap="round" stroke-linejoin="round"/>
<path d="M67.7471 58.2695H51.021V111.231H67.7471V58.2695Z" fill="#878787" stroke="#263238" stroke-linecap="round" stroke-linejoin="round"/>
<path d="M66.5596 58.2695H54.6086V111.231H66.5596V58.2695Z" fill="#C9C9C9" stroke="#263238" stroke-linecap="round" stroke-linejoin="round"/>
<path d="M66.5596 66.2368H54.6086V71.4077H66.5596V66.2368Z" fill="white" stroke="#263238" stroke-linecap="round" stroke-linejoin="round"/>
<path d="M66.5596 99.0957H54.6086V104.267H66.5596V99.0957Z" fill="white" stroke="#263238" stroke-linecap="round" stroke-linejoin="round"/>
<path d="M80.4891 58.2695H63.7629V111.231H80.4891V58.2695Z" fill="#C9C9C9" stroke="#263238" stroke-linecap="round" stroke-linejoin="round"/>
<path d="M91.385 111.772H119.455L126.921 105.018H91.385V111.772Z" fill="white" stroke="#263238" stroke-linecap="round" stroke-linejoin="round"/>
<path d="M123.742 112.115L122.845 110.571L90.8044 110.505L91.7278 112.115H123.742Z" fill="white" stroke="#263238" stroke-linecap="round" stroke-linejoin="round"/>
<path d="M75.1338 59.3723L64.7881 65.355L91.3009 111.203L101.647 105.22L75.1338 59.3723Z" fill="#C9C9C9" stroke="#263238" stroke-linecap="round" stroke-linejoin="round"/>
<path d="M79.125 66.2509L68.7793 72.2336L71.3678 76.7099L81.7135 70.7272L79.125 66.2509Z" fill="white" stroke="#263238" stroke-linecap="round" stroke-linejoin="round"/>
<path d="M95.5847 94.6923L85.239 100.675L87.8276 105.151L98.1733 99.1686L95.5847 94.6923Z" fill="white" stroke="#263238" stroke-linecap="round" stroke-linejoin="round"/>
<path d="M126.737 105.48L101.371 105.414L74.8569 59.562L100.223 59.628L126.737 105.48Z" fill="#C9C9C9" stroke="#263238" stroke-linecap="round" stroke-linejoin="round"/>
<path d="M140.561 84.9547C140.561 84.9547 135.944 83.3059 134.625 76.0508C133.306 68.7958 130.997 58.5728 133.636 56.2644C136.274 53.956 141.22 52.6369 141.88 57.2537C142.54 61.8706 141.55 70.7745 142.54 72.7531C143.529 74.7317 146.827 73.4126 146.827 69.4554C146.827 62.939 144.188 56.2644 145.125 49.6689C146.444 40.554 155.678 39.5515 156.667 49.6689C157.221 55.2619 157.379 60.9736 157.379 66.5929C157.379 68.9013 161.337 70.2204 161.007 64.6143C160.769 60.657 163.645 56.0402 167.602 57.3593C171.56 58.6784 168.262 76.1564 166.943 79.1243C165.624 82.0923 157.379 82.6463 157.379 82.6463V90.2311L147.486 90.5609L147.156 82.9761C145.142 84.1405 142.884 84.818 140.561 84.9547Z" fill="#407BFF" stroke="#263238" stroke-linecap="round" stroke-linejoin="round"/>
<path d="M149.465 70.4973C149.583 72.1462 149.662 73.1355 149.662 73.1355" stroke="#263238" stroke-linecap="round" stroke-linejoin="round"/>
<path d="M150.124 44.9199C150.124 44.9199 147.961 46.4237 148.119 50.935C148.225 53.6787 148.752 61.2767 149.161 66.8301" stroke="#263238" stroke-linecap="round" stroke-linejoin="round"/>
<path d="M153.844 60.4722L154.187 71.513" stroke="#263238" stroke-linecap="round" stroke-linejoin="round"/>
<path d="M158.672 78.689C157.908 78.8079 157.136 78.874 156.363 78.8868" stroke="#263238" stroke-linecap="round" stroke-linejoin="round"/>
<path d="M165.558 60.1426C164.796 61.5865 164.393 63.1928 164.384 64.8254C164.384 67.4635 164.555 74.8637 162.88 76.8687C162.471 77.3189 161.972 77.6784 161.416 77.924" stroke="#263238" stroke-linecap="round" stroke-linejoin="round"/>
<path d="M136.934 74.9824C137.33 76.9657 138.281 78.7955 139.677 80.2588C140.503 80.9196 141.522 81.2926 142.579 81.3212C143.636 81.3497 144.674 81.0323 145.534 80.4171" stroke="#263238" stroke-linecap="round" stroke-linejoin="round"/>
<path d="M136.617 57.1353C136.617 57.1353 133.279 57.1352 134.44 62.9788C134.942 65.4455 135.403 68.4795 135.997 71.3419" stroke="#263238" stroke-linecap="round" stroke-linejoin="round"/>
<path d="M149.161 79.3748L149.834 86.5638" stroke="#263238" stroke-linecap="round" stroke-linejoin="round"/>
<path d="M166.283 87.2632L165.083 97.1036L164.265 103.805L163.315 111.6H139.585L138.635 103.805L137.817 97.1036L136.617 87.2632H166.283Z" fill="white" stroke="#263238" stroke-linecap="round" stroke-linejoin="round"/>
<path d="M165.083 97.1038L164.265 103.805H138.635L137.817 97.1038H165.083Z" fill="#407BFF" stroke="#263238" stroke-linecap="round" stroke-linejoin="round"/>
<path d="M179.316 111.6H27V121.691H179.316V111.6Z" fill="white" stroke="#263238" stroke-linecap="round" stroke-linejoin="round"/>
<path d="M179.315 111.6H144.201V121.691H179.315V111.6Z" fill="white" stroke="#263238" stroke-linecap="round" stroke-linejoin="round"/>
<path d="M140.785 121.731C157.102 127.746 154.161 139.117 154.161 139.117H169.607V121.731H140.785Z" fill="#919191" stroke="#263238" stroke-linecap="round" stroke-linejoin="round"/>
<path d="M145.996 121.731C162.3 127.746 159.358 139.117 159.358 139.117H174.818V121.731H145.996Z" fill="white" stroke="#263238" stroke-linecap="round" stroke-linejoin="round"/>
<path d="M36.2471 121.731C52.5643 127.746 49.6227 139.117 49.6227 139.117H65.0693V121.731H36.2471Z" fill="#919191" stroke="#263238" stroke-linecap="round" stroke-linejoin="round"/>
<path d="M41.457 121.731C57.761 127.746 54.8195 139.117 54.8195 139.117H70.2793V121.731H41.457Z" fill="white" stroke="#263238" stroke-linecap="round" stroke-linejoin="round"/>
<path d="M402.282 2H301V142.597H402.282V2Z" fill="#919191" stroke="#263238" stroke-linecap="round" stroke-linejoin="round"/>
<path d="M397.891 8.10278H305.401V136.495H397.891V8.10278Z" fill="#407BFF"/>
<path opacity="0.5" d="M397.891 8.10278H305.401V136.495H397.891V8.10278Z" fill="white"/>
<path d="M325.734 126.744C323.254 130.527 320.121 133.838 316.482 136.524H397.89V8.10278H382.888L380.932 8.71892C366.262 13.3449 351.103 26.7337 342.506 51.0663" stroke="#263238" stroke-linecap="round" stroke-linejoin="round"/>
<path d="M341.078 55.3303C337.663 66.9346 335.776 78.9348 335.465 91.0273C334.927 105.541 331.836 115.976 327.709 123.477" stroke="#263238" stroke-linecap="round" stroke-linejoin="round"/>
<path d="M388.844 40.6897C375.397 48.5137 359.739 61.658 353.89 81.8146C350.751 92.5726 353.695 102.274 359.514 110.578" stroke="#263238" stroke-linecap="round" stroke-linejoin="round"/>
<path d="M362.663 114.626C370.731 124.074 382.223 131.507 391.524 136.504H397.89V35.9463C396.071 36.7971 394.135 37.7556 392.12 38.8803" stroke="#263238" stroke-linecap="round" stroke-linejoin="round"/>
<path d="M320.775 41.5797C327.856 27.1444 328.599 15.6921 327.788 8.10278H305.421V66.8415C308.726 62.1373 312.775 55.8487 317.665 47.4184C317.968 46.9 318.252 46.4404 318.536 45.8927" stroke="#263238" stroke-linecap="round" stroke-linejoin="round"/>
<path d="M329.538 97.1789C328.453 104.289 325.186 109.453 321.333 109.453C316.589 109.453 312.736 101.629 312.736 91.9466C312.736 82.2644 316.589 74.4404 321.333 74.4404C326.076 74.4404 329.929 82.2644 329.929 91.9466" stroke="#263238" stroke-linecap="round" stroke-linejoin="round"/>
<path d="M333.616 56.015C333.616 59.7412 331.973 62.773 329.929 62.773C327.885 62.773 326.252 59.7412 326.252 56.015C326.252 52.2889 327.895 49.2571 329.929 49.2571C331.963 49.2571 333.616 52.2791 333.616 56.015Z" stroke="#263238" stroke-linecap="round" stroke-linejoin="round"/>
<path d="M380.541 84.5628C384.091 86.2547 386.409 89.2083 386.409 92.5628C386.409 97.8147 380.639 102.079 373.509 102.079C366.379 102.079 360.619 97.8147 360.619 92.5628C360.619 87.311 366.389 83.0371 373.509 83.0371C374.645 83.0363 375.779 83.1477 376.893 83.3696" stroke="#263238" stroke-linecap="round" stroke-linejoin="round"/>
<path d="M378.947 92.5628C378.947 94.7633 376.531 96.553 373.538 96.553C370.546 96.553 368.13 94.7633 368.13 92.5628C368.13 90.3623 370.555 88.5627 373.538 88.5627C376.521 88.5627 378.947 90.3525 378.947 92.5628Z" stroke="#263238" stroke-linecap="round" stroke-linejoin="round"/>
<path d="M387.67 68.2987C387.67 71.35 384.648 73.8244 380.912 73.8244C377.176 73.8244 374.154 71.35 374.154 68.2987C374.154 65.2473 377.176 62.7729 380.912 62.7729C384.648 62.7729 387.67 65.2473 387.67 68.2987Z" stroke="#263238" stroke-linecap="round" stroke-linejoin="round"/>
<path d="M338.839 37.5893C341.383 37.5893 343.445 32.5013 343.445 26.225C343.445 19.9486 341.383 14.8606 338.839 14.8606C336.295 14.8606 334.232 19.9486 334.232 26.225C334.232 32.5013 336.295 37.5893 338.839 37.5893Z" stroke="#263238" stroke-linecap="round" stroke-linejoin="round"/>
<path d="M351.435 123.888C351.435 125.165 351.057 126.413 350.348 127.474C349.638 128.536 348.63 129.363 347.451 129.852C346.271 130.34 344.974 130.468 343.721 130.219C342.469 129.97 341.319 129.355 340.416 128.452C339.514 127.55 338.899 126.4 338.65 125.147C338.401 123.895 338.529 122.597 339.017 121.418C339.506 120.239 340.333 119.23 341.395 118.521C342.456 117.812 343.704 117.433 344.981 117.433C346.693 117.433 348.334 118.113 349.545 119.324C350.755 120.534 351.435 122.176 351.435 123.888Z" stroke="#263238" stroke-linecap="round" stroke-linejoin="round"/>
<path d="M381.529 28.0637C381.531 28.8557 381.297 29.6304 380.859 30.2897C380.42 30.949 379.795 31.4632 379.064 31.7672C378.333 32.0711 377.527 32.1512 376.751 31.9971C375.974 31.8431 375.26 31.462 374.7 30.9019C374.14 30.3419 373.759 29.6283 373.605 28.8515C373.451 28.0746 373.531 27.2696 373.835 26.5383C374.139 25.807 374.653 25.1823 375.312 24.7436C375.972 24.3048 376.746 24.0716 377.538 24.0735C378.596 24.0761 379.609 24.4973 380.357 25.2451C381.105 25.9928 381.526 27.0063 381.529 28.0637Z" stroke="#263238" stroke-linecap="round" stroke-linejoin="round"/>
<path d="M356.345 56.3181C356.347 56.7441 356.222 57.161 355.987 57.5161C355.752 57.8712 355.416 58.1485 355.023 58.3129C354.631 58.4772 354.198 58.5212 353.78 58.4393C353.362 58.3574 352.977 58.1533 352.675 57.8528C352.374 57.5522 352.168 57.1689 352.084 56.7513C352 56.3336 352.042 55.9005 352.205 55.5068C352.367 55.1131 352.643 54.7765 352.997 54.5396C353.351 54.3027 353.767 54.1763 354.193 54.1763C354.475 54.175 354.755 54.2294 355.016 54.3365C355.277 54.4436 355.514 54.6011 355.714 54.8002C355.914 54.9992 356.073 55.2357 356.181 55.4962C356.289 55.7567 356.345 56.036 356.345 56.3181Z" stroke="#263238" stroke-linecap="round" stroke-linejoin="round"/>
<path d="M397.891 8.10278H305.401V136.495H397.891V8.10278Z" stroke="#263238" stroke-linecap="round" stroke-linejoin="round"/>
<path d="M235.809 279.435H195.481V294.615H235.809V279.435Z" fill="#263238" stroke="#263238" stroke-linecap="round" stroke-linejoin="round"/>
<path d="M289.919 281.727H129.409L137.006 157.306H297.532L289.919 281.727Z" fill="#919191" stroke="#263238" stroke-linecap="round" stroke-linejoin="round"/>
<path d="M285.32 281.727H124.809L132.407 157.306H292.917L285.32 281.727Z" fill="#263238" stroke="#263238" stroke-linecap="round" stroke-linejoin="round"/>
<path d="M276.827 274.805H134.15L140.9 164.213H283.578L276.827 274.805Z" fill="white" stroke="#263238" stroke-linecap="round" stroke-linejoin="round"/>
<path d="M235.322 258.322H138.404L143.6 173.099H240.534L235.322 258.322Z" fill="#919191" stroke="#263238" stroke-linecap="round" stroke-linejoin="round"/>
<path d="M176.643 221.714C176.643 221.714 156.456 229.705 156.33 231.855C156.205 234.006 152.249 258.322 152.249 258.322H212.277L207.223 230.317L185.01 221.086L176.643 221.714Z" fill="white" stroke="#263238" stroke-linecap="round" stroke-linejoin="round"/>
<path d="M177.24 216.785C175.721 217.186 174.31 217.92 173.112 218.936C171.542 220.506 169.627 225.702 169.627 225.702L169.548 231.855L177.507 227.554L185.591 227.02L193.158 234.1L194.131 223.331C194.131 223.331 192.969 217.178 190.52 216.864C188.072 216.55 177.24 216.785 177.24 216.785Z" fill="white" stroke="#263238" stroke-linecap="round" stroke-linejoin="round"/>
<path d="M176.988 210.946L176.643 221.715L181.4 229.406L189.264 221.401L190.489 211.558L176.988 210.946Z" fill="white" stroke="#263238" stroke-linecap="round" stroke-linejoin="round"/>
<path d="M196.392 198.356C195.826 207.383 189.83 218.324 183.252 218.324C176.675 218.324 172.013 207.336 172.562 198.356C173.112 189.377 178.841 182.015 185.466 182.015C192.09 182.015 196.941 189.346 196.392 198.356Z" fill="white" stroke="#263238" stroke-linecap="round" stroke-linejoin="round"/>
<path d="M172.452 199.549C172.452 199.549 170.333 194.023 169.454 198.325C168.575 202.626 172.907 207.241 172.907 207.241L172.452 199.549Z" fill="white" stroke="#263238" stroke-linecap="round" stroke-linejoin="round"/>
<path d="M196.391 198.356C196.391 198.356 201.587 196.174 200.065 200.789C199.678 202.095 199.004 203.297 198.091 204.308C197.178 205.319 196.05 206.112 194.79 206.628L196.391 198.356Z" fill="white" stroke="#263238" stroke-linecap="round" stroke-linejoin="round"/>
<path d="M182.608 199.549C182.65 198.995 182.576 198.438 182.39 197.915C182.205 197.391 181.912 196.911 181.531 196.507C181.15 196.102 180.689 195.781 180.177 195.565C179.665 195.348 179.114 195.24 178.558 195.248C177.402 195.279 176.296 195.734 175.454 196.527C174.611 197.321 174.09 198.396 173.99 199.549C173.949 200.104 174.023 200.662 174.209 201.187C174.394 201.711 174.686 202.192 175.067 202.598C175.448 203.003 175.909 203.326 176.421 203.544C176.932 203.762 177.484 203.872 178.04 203.866C179.2 203.836 180.307 203.378 181.15 202.581C181.993 201.785 182.512 200.705 182.608 199.549Z" fill="white" stroke="#263238" stroke-linecap="round" stroke-linejoin="round"/>
<path d="M193.063 199.549L197.757 198.325" stroke="#263238" stroke-linecap="round" stroke-linejoin="round"/>
<path d="M193.064 199.549C193.105 198.996 193.031 198.441 192.846 197.918C192.662 197.395 192.371 196.917 191.991 196.512C191.612 196.108 191.153 195.787 190.643 195.569C190.133 195.351 189.584 195.242 189.029 195.248C187.87 195.275 186.761 195.728 185.915 196.522C185.069 197.316 184.546 198.394 184.445 199.549C184.404 200.104 184.478 200.662 184.664 201.186C184.849 201.711 185.142 202.191 185.522 202.597C185.903 203.003 186.364 203.325 186.876 203.544C187.387 203.762 187.939 203.872 188.495 203.866C189.655 203.835 190.762 203.378 191.605 202.581C192.448 201.785 192.967 200.705 193.064 199.549Z" fill="white" stroke="#263238" stroke-linecap="round" stroke-linejoin="round"/>
<path d="M184.398 180.162C184.398 180.162 179.689 177.713 176.157 179.252C172.625 180.79 170.019 189.094 170.192 191.245C170.746 194.063 171.501 196.838 172.452 199.549L176.189 188.78L185.984 184.479L184.398 180.162Z" fill="#263238" stroke="#263238" stroke-linecap="round" stroke-linejoin="round"/>
<path d="M179.657 182.329C179.657 182.329 187.412 176.175 193.691 179.189C195.613 180.024 197.202 181.477 198.205 183.316C199.209 185.156 199.57 187.278 199.233 189.346C199.138 190.915 199.013 197.948 199.013 197.948L195.277 198.576L193.44 192.784C191.318 191.944 189.252 190.969 187.255 189.864C187.255 189.864 178.951 188.781 179.657 182.329Z" fill="#263238" stroke="#263238" stroke-linecap="round" stroke-linejoin="round"/>
<path d="M182.609 199.55L182.059 208.482H184.21" fill="white"/>
<path d="M182.609 199.55L182.059 208.482H184.21" stroke="#263238" stroke-linecap="round" stroke-linejoin="round"/>
<path d="M180.929 211.856H185.544" stroke="#263238" stroke-linecap="round" stroke-linejoin="round"/>
<path d="M181.4 229.406L179.689 257.396" stroke="#263238" stroke-linecap="round" stroke-linejoin="round"/>
<path d="M207.191 230.317C207.191 230.317 200.771 244.79 200.582 247.867C200.394 250.944 199.672 257.71 199.672 257.71" stroke="#263238" stroke-linecap="round" stroke-linejoin="round"/>
<path d="M156.33 231.855C156.33 231.855 162.719 242.938 163.551 244.413C164.383 245.889 163.363 257.647 163.363 257.647" stroke="#263238" stroke-linecap="round" stroke-linejoin="round"/>
<path d="M211.477 240.787L213.596 231.243L217.207 227.554L220.613 222.012H222.152L220.268 227.868L225.04 225.089L228.117 220.176L229.906 221.086L225.511 232.483L218.541 235.858L217.332 240.473L211.477 240.787Z" fill="white" stroke="#263238" stroke-linecap="round" stroke-linejoin="round"/>
<path d="M217.442 258.321L218.022 239.248L211.021 238.008L205.496 258.321H217.442Z" fill="white" stroke="#263238" stroke-linecap="round" stroke-linejoin="round"/>
<path d="M234.898 265.402H137.964L138.403 258.322H235.322L234.898 265.402Z" fill="white" stroke="#263238" stroke-linecap="round" stroke-linejoin="round"/>
<path d="M141.919 261.1H230.848" stroke="#263238" stroke-linecap="round" stroke-linejoin="round"/>
<path d="M276.984 195.844H244.364L245.746 173.381H278.366L276.984 195.844Z" fill="#407BFF" stroke="#263238" stroke-linecap="round" stroke-linejoin="round"/>
<path d="M276.984 195.844H244.364L244.6 192.155H277.22L276.984 195.844Z" fill="white" stroke="#263238" stroke-linecap="round" stroke-linejoin="round"/>
<path d="M266.451 183.302L257.974 178.231L257.362 188.372L266.451 183.302Z" fill="white" stroke="#263238" stroke-linecap="round" stroke-linejoin="round"/>
<path d="M274.865 230.615H242.245L243.61 208.167H276.23L274.865 230.615Z" fill="#407BFF" stroke="#263238" stroke-linecap="round" stroke-linejoin="round"/>
<path d="M274.865 230.615H242.245L242.48 226.927H275.085L274.865 230.615Z" fill="white" stroke="#263238" stroke-linecap="round" stroke-linejoin="round"/>
<path d="M264.332 218.088L255.855 213.018L255.243 223.159L264.332 218.088Z" fill="white" stroke="#263238" stroke-linecap="round" stroke-linejoin="round"/>
<path d="M272.73 265.402H240.125L241.491 242.938H274.111L272.73 265.402Z" fill="#407BFF" stroke="#263238" stroke-linecap="round" stroke-linejoin="round"/>
<path d="M272.73 265.402H240.125L240.345 261.713H272.965L272.73 265.402Z" fill="white" stroke="#263238" stroke-linecap="round" stroke-linejoin="round"/>
<path d="M262.197 252.859L253.736 247.789L253.108 257.929L262.197 252.859Z" fill="white" stroke="#263238" stroke-linecap="round" stroke-linejoin="round"/>
<path d="M244.458 199.55H276.137" stroke="#263238" stroke-linecap="round" stroke-linejoin="round"/>
<path d="M244.222 203.253H275.916" stroke="#263238" stroke-linecap="round" stroke-linejoin="round"/>
<path d="M242.308 234.633H274.002" stroke="#263238" stroke-linecap="round" stroke-linejoin="round"/>
<path d="M242.088 238.323H273.782" stroke="#263238" stroke-linecap="round" stroke-linejoin="round"/>
<path d="M228.258 294.616H204.428C204.428 292.238 205.373 289.958 207.054 288.277C208.735 286.596 211.015 285.652 213.392 285.652H219.263C221.64 285.652 223.92 286.596 225.601 288.277C227.282 289.958 228.226 292.238 228.226 294.616H228.258Z" fill="white" stroke="#263238" stroke-linecap="round" stroke-linejoin="round"/>
<path d="M193.079 289.733H76.5698V294.615H193.079V289.733Z" fill="#919191" stroke="#263238" stroke-linecap="round" stroke-linejoin="round"/>
<path d="M193.048 289.733H163.771V294.615H193.048V289.733Z" fill="white" stroke="#263238" stroke-linecap="round" stroke-linejoin="round"/>
<path d="M352.809 299.041H31.6272V328.71H352.809V299.041Z" fill="#919191" stroke="#263238" stroke-linecap="round" stroke-linejoin="round"/>
<path d="M352.809 299.041H260.765V328.71H352.809V299.041Z" fill="white" stroke="#263238" stroke-linecap="round" stroke-linejoin="round"/>
<path d="M352.809 303.75H31.6272V311.929H352.809V303.75Z" fill="#263238" stroke="#263238" stroke-linecap="round" stroke-linejoin="round"/>
<path d="M357.435 294.787H27V304.708H357.435V294.787Z" fill="#919191" stroke="#263238" stroke-linecap="round" stroke-linejoin="round"/>
<path d="M357.422 294.787H266.678V304.708H357.422V294.787Z" fill="white" stroke="#263238" stroke-linecap="round" stroke-linejoin="round"/>
<path d="M271.76 110.32H227.662C225.365 110.32 223.162 111.233 221.537 112.857C219.913 114.482 219 116.685 219 118.983V135.225C218.998 136.363 219.221 137.49 219.656 138.542C220.09 139.594 220.728 140.549 221.533 141.354C222.338 142.159 223.294 142.797 224.345 143.232C225.397 143.666 226.524 143.889 227.662 143.887H250.753L242.104 168.047L258.671 143.887H271.76C272.898 143.889 274.025 143.666 275.077 143.232C276.129 142.797 277.084 142.159 277.889 141.354C278.694 140.549 279.332 139.594 279.766 138.542C280.201 137.49 280.424 136.363 280.422 135.225V118.983C280.422 116.685 279.51 114.482 277.885 112.857C276.261 111.233 274.057 110.32 271.76 110.32Z" fill="white" stroke="#263238" stroke-linecap="round" stroke-linejoin="round"/>
<path d="M237.895 130.799C239.637 130.799 241.049 129.387 241.049 127.645C241.049 125.903 239.637 124.491 237.895 124.491C236.153 124.491 234.741 125.903 234.741 127.645C234.741 129.387 236.153 130.799 237.895 130.799Z" fill="#263238"/>
<path d="M249.711 130.799C251.453 130.799 252.865 129.387 252.865 127.645C252.865 125.903 251.453 124.491 249.711 124.491C247.97 124.491 246.558 125.903 246.558 127.645C246.558 129.387 247.97 130.799 249.711 130.799Z" fill="#263238"/>
<path d="M264.667 127.646C264.667 127.021 264.482 126.411 264.135 125.892C263.788 125.373 263.295 124.969 262.717 124.731C262.14 124.492 261.506 124.431 260.894 124.554C260.281 124.676 259.72 124.978 259.279 125.42C258.839 125.863 258.539 126.426 258.419 127.039C258.299 127.651 258.363 128.286 258.604 128.862C258.845 129.438 259.251 129.929 259.772 130.274C260.292 130.619 260.903 130.802 261.527 130.799C261.941 130.799 262.35 130.718 262.732 130.559C263.114 130.4 263.461 130.168 263.753 129.875C264.044 129.582 264.275 129.234 264.432 128.851C264.589 128.469 264.669 128.059 264.667 127.646Z" fill="#263238"/>
</g>
<defs>
<linearGradient id="paint0_linear_375_2630" x1="-59.7285" y1="409.5" x2="116.144" y2="123.96" gradientUnits="userSpaceOnUse">
<stop stop-color="#ED893E"/>
<stop offset="1" stop-color="#00ABAD"/>
</linearGradient>
<linearGradient id="paint1_linear_375_2630" x1="122" y1="200" x2="-154.5" y2="16.5" gradientUnits="userSpaceOnUse">
<stop stop-color="#00ABAD"/>
<stop offset="1" stop-color="#ED893E"/>
</linearGradient>
<clipPath id="clip0_375_2630">
<rect width="435" height="329" fill="white"/>
</clipPath>
</defs>
</svg>
